<svg width="158" height="47" viewBox="0 0 158 47" fill="none" xmlns="http://www.w3.org/2000/svg">
<path d="M156.46 41.3034C156.46 41.8882 156.345 42.4672 156.121 43.0074C155.897 43.5475 155.569 44.0383 155.155 44.4515C154.741 44.8648 154.25 45.1925 153.709 45.4158C153.169 45.6392 152.589 45.7538 152.005 45.7532H6.19323C5.01142 45.7544 3.87751 45.2863 3.04087 44.4519C2.20422 43.6174 1.73335 42.4849 1.73181 41.3034V5.81789C1.73335 4.63586 2.20403 3.50276 3.04051 2.66737C3.87699 1.83199 5.01089 1.36261 6.19323 1.3623H152.003C152.589 1.3623 153.168 1.47756 153.709 1.70149C154.249 1.92542 154.741 2.25363 155.154 2.66739C155.568 3.08114 155.896 3.57233 156.12 4.1129C156.344 4.65347 156.459 5.23283 156.459 5.81789L156.46 41.3034Z" fill="white"/>
<path d="M152.004 46.7882H6.19308C4.73723 46.7879 3.34096 46.2102 2.31065 45.1819C1.28034 44.1537 0.700143 42.7587 0.697372 41.3033L0.697372 5.8189C0.699526 4.36271 1.27934 2.96683 2.30962 1.93748C3.3399 0.908128 4.73651 0.329354 6.19308 0.328125L152.003 0.328125C153.46 0.329967 154.856 0.908938 155.886 1.93816C156.916 2.96738 157.496 4.3629 157.499 5.8189V41.3033C157.501 44.3287 155.032 46.7882 152.004 46.7882Z" fill="#A6A6A6"/>
<path d="M156.46 41.3034C156.46 41.8882 156.345 42.4672 156.121 43.0074C155.897 43.5475 155.569 44.0383 155.155 44.4515C154.741 44.8648 154.25 45.1925 153.709 45.4158C153.169 45.6392 152.589 45.7538 152.005 45.7532H6.19323C5.01142 45.7544 3.87751 45.2863 3.04087 44.4519C2.20422 43.6174 1.73335 42.4849 1.73181 41.3034V5.81789C1.73335 4.63586 2.20403 3.50276 3.04051 2.66737C3.87699 1.83199 5.01089 1.36261 6.19323 1.3623H152.003C152.589 1.3623 153.168 1.47756 153.709 1.70149C154.249 1.92542 154.741 2.25363 155.154 2.66739C155.568 3.08114 155.896 3.57233 156.12 4.1129C156.344 4.65347 156.459 5.23283 156.459 5.81789L156.46 41.3034Z" fill="black"/>
<path d="M35.7107 23.3135C35.677 19.5689 38.7776 17.7472 38.9194 17.6624C37.1634 15.1029 34.4417 14.7532 33.4852 14.7253C31.1993 14.4848 28.982 16.0927 27.8175 16.0927C26.6298 16.0927 24.8367 14.7485 22.9041 14.788C20.4171 14.8264 18.0905 16.2659 16.8145 18.5012C14.1811 23.059 16.1451 29.7569 18.6681 33.4411C19.9302 35.2465 21.4049 37.26 23.3352 37.1891C25.2237 37.1124 25.9291 35.9866 28.208 35.9866C30.466 35.9866 31.1285 37.1891 33.0971 37.1438C35.1239 37.1124 36.3999 35.3314 37.6178 33.5108C39.0763 31.4439 39.662 29.4061 39.6852 29.3015C39.6387 29.2852 35.7502 27.8004 35.7107 23.3135ZM31.9919 12.3017C33.0076 11.0318 33.7026 9.30421 33.5097 7.55103C32.0396 7.61609 30.2011 8.56762 29.1424 9.80961C28.2057 10.904 27.369 12.6979 27.5851 14.3849C29.2365 14.508 30.9321 13.5518 31.9919 12.3017Z" fill="white"/>
<path d="M152.004 0.328125H73.9032L104.494 46.7882H152.004C153.46 46.787 154.857 46.2085 155.887 45.1797C156.917 44.1508 157.497 42.7556 157.5 41.2998V5.8189C157.497 4.36281 156.917 2.96711 155.887 1.93782C154.857 0.908533 153.461 0.329661 152.004 0.328125Z" fill="url(#paint0_linear_0_579)"/>
<path d="M63.0634 36.9302H60.4242L58.9785 32.3886H53.9535L52.5764 36.9302H50.0069L54.9866 21.4686H58.0616L63.0634 36.9302ZM58.5427 30.4832L57.2353 26.4459C57.0971 26.0334 56.8367 25.0621 56.4556 23.5332H56.4091C56.2557 24.1908 56.0105 25.1621 55.6746 26.4459L54.3893 30.4832H58.5427ZM75.8445 31.2186C75.8445 33.1147 75.3297 34.6135 74.2989 35.7137C73.3762 36.6931 72.2291 37.1823 70.8613 37.1823C69.3842 37.1823 68.3221 36.656 67.6771 35.601V41.4508H65.1994V29.4457C65.1994 28.2548 65.168 27.0338 65.1076 25.7813H67.2866L67.4249 27.5484H67.4714C68.2977 26.217 69.5516 25.5513 71.2344 25.5513C72.5499 25.5513 73.6481 26.0706 74.5267 27.1104C75.4041 28.1526 75.8445 29.5212 75.8445 31.2186ZM73.3204 31.3093C73.3204 30.2241 73.0763 29.3295 72.5859 28.6243C72.0502 27.8912 71.3308 27.524 70.429 27.524C69.8177 27.524 69.2622 27.7285 68.766 28.1317C68.2686 28.5383 67.9432 29.0693 67.791 29.7269C67.723 29.9728 67.6844 30.2259 67.6759 30.4809V32.341C67.6759 33.1507 67.9246 33.8351 68.422 34.3951C68.9194 34.9527 69.5655 35.2327 70.3604 35.2327C71.2936 35.2327 72.02 34.8714 72.5394 34.1546C73.0601 33.4354 73.3204 32.4873 73.3204 31.3093ZM88.671 31.2186C88.671 33.1147 88.1561 34.6135 87.1253 35.7137C86.2014 36.6931 85.0556 37.1823 83.6866 37.1823C82.2095 37.1823 81.1473 36.656 80.5023 35.601V41.4508H78.0247V29.4457C78.0247 28.2548 77.9933 27.0338 77.9329 25.7813H80.1119L80.2502 27.5484H80.2966C81.1218 26.217 82.3757 25.5513 84.0596 25.5513C85.374 25.5513 86.4722 26.0706 87.3531 27.1104C88.2293 28.1526 88.671 29.5212 88.671 31.2186ZM86.1456 31.3093C86.1456 30.2241 85.9004 29.3295 85.41 28.6243C84.8743 27.8912 84.1572 27.524 83.2554 27.524C82.6441 27.524 82.0887 27.7285 81.5901 28.1317C81.0927 28.5383 80.7685 29.0693 80.6162 29.7269C80.5407 30.0336 80.5 30.2834 80.5 30.4809V32.341C80.5 33.1507 80.7499 33.8351 81.2449 34.3951C81.7423 34.9516 82.3885 35.2327 83.1857 35.2327C84.1201 35.2327 84.8464 34.8714 85.3647 34.1546C85.8853 33.4354 86.1456 32.4873 86.1456 31.3093ZM103.012 32.5931C103.012 33.9094 102.551 34.9795 101.637 35.8055C100.63 36.7071 99.2254 37.159 97.4241 37.159C95.7599 37.159 94.4258 36.8384 93.4194 36.1959L93.9923 34.1313C95.0789 34.775 96.2724 35.0956 97.5717 35.0956C98.5061 35.0956 99.2324 34.8842 99.7507 34.4648C100.27 34.0442 100.533 33.4819 100.533 32.7801C100.533 32.1516 100.315 31.6253 99.889 31.1966C99.4602 30.769 98.7513 30.3705 97.7553 30.0045C95.0476 28.9949 93.6925 27.5182 93.6925 25.5757C93.6925 24.307 94.1713 23.2683 95.1266 22.4562C96.0819 21.6452 97.3486 21.2397 98.9244 21.2397C100.332 21.2397 101.504 21.4849 102.435 21.974L101.813 23.9933C100.937 23.5192 99.9483 23.2822 98.8419 23.2822C97.968 23.2822 97.2823 23.4972 96.7919 23.9247C96.3794 24.307 96.1702 24.7728 96.1702 25.3259C96.1702 25.9358 96.4084 26.4424 96.8826 26.8397C97.294 27.2057 98.0447 27.6042 99.1301 28.0318C100.462 28.5685 101.44 29.1936 102.067 29.9116C102.698 30.6296 103.012 31.5254 103.012 32.5931ZM111.224 27.6402H108.493V33.0532C108.493 34.4299 108.975 35.1165 109.939 35.1165C110.382 35.1165 110.749 35.0794 111.04 35.0015L111.108 36.8825C110.62 37.0649 109.977 37.1567 109.181 37.1567C108.203 37.1567 107.438 36.8581 106.886 36.2609C106.336 35.6638 106.06 34.6634 106.06 33.2553V27.6356H104.433V25.7767H106.06V23.7353L108.493 23.0011V25.7767H111.224V27.6402ZM123.522 31.2639C123.522 32.9776 123.032 34.3846 122.053 35.4848C121.029 36.6176 119.667 37.1823 117.969 37.1823C116.331 37.1823 115.028 36.6397 114.057 35.5557C113.085 34.4694 112.599 33.1008 112.599 31.4498C112.599 29.7222 113.101 28.3071 114.102 27.2069C115.105 26.1055 116.455 25.5548 118.153 25.5548C119.789 25.5548 121.104 26.0985 122.098 27.1836C123.049 28.2362 123.522 29.5956 123.522 31.2639ZM120.954 31.3209C120.954 30.2996 120.733 29.4236 120.29 28.6905C119.771 27.8052 119.027 27.3625 118.064 27.3625C117.071 27.3625 116.31 27.8052 115.792 28.6905C115.348 29.4236 115.127 30.3147 115.127 31.3673C115.127 32.3898 115.348 33.2681 115.792 33.9989C116.327 34.8842 117.075 35.3268 118.043 35.3268C118.99 35.3268 119.732 34.8749 120.269 33.9768C120.725 33.2263 120.954 32.3444 120.954 31.3209ZM131.579 27.9597C131.321 27.9132 131.06 27.8903 130.798 27.8912C129.927 27.8912 129.253 28.2188 128.778 28.8787C128.367 29.4596 128.16 30.1939 128.16 31.0804V36.9302H125.682V29.2923C125.685 28.122 125.661 26.9517 125.61 25.7825H127.768L127.859 27.9156H127.928C128.19 27.1825 128.602 26.5911 129.167 26.1484C129.684 25.7616 130.312 25.5522 130.957 25.5513C131.186 25.5513 131.393 25.5675 131.577 25.5966L131.579 27.9597ZM142.66 30.8283C142.666 31.2048 142.636 31.5811 142.569 31.9517H135.136C135.164 33.0532 135.525 33.8966 136.215 34.4775C136.841 34.9957 137.651 35.256 138.646 35.256C139.747 35.256 140.751 35.0817 141.654 34.7297L142.042 36.448C140.987 36.9081 139.741 37.137 138.303 37.137C136.574 37.137 135.217 36.6281 134.229 35.6126C133.243 34.5961 132.749 33.2298 132.749 31.5184C132.749 29.8384 133.208 28.4384 134.128 27.3219C135.09 26.1299 136.39 25.5338 138.027 25.5338C139.634 25.5338 140.851 26.1299 141.677 27.3219C142.331 28.2664 142.66 29.4376 142.66 30.8283ZM140.297 30.1858C140.315 29.4503 140.152 28.8171 139.816 28.2815C139.387 27.5914 138.727 27.2475 137.843 27.2475C137.033 27.2475 136.373 27.5833 135.871 28.2572C135.458 28.7928 135.213 29.4364 135.138 30.1835L140.297 30.1858Z" fill="white"/>
<path d="M53.2393 16.0021C52.5502 16.0021 51.954 15.9684 51.4578 15.9115V8.43634C52.1518 8.32916 52.8532 8.27633 53.5554 8.27833C56.3968 8.27833 57.7054 9.67601 57.7054 11.9543C57.7054 14.5824 56.1598 16.0021 53.2393 16.0021ZM53.6554 9.23684C53.2719 9.23684 52.9453 9.26007 52.6745 9.31584V14.9983C52.821 15.0215 53.1022 15.032 53.4973 15.032C55.3591 15.032 56.4189 13.9724 56.4189 11.988C56.4189 10.2186 55.4602 9.23684 53.6554 9.23684ZM61.7833 16.0591C60.1819 16.0591 59.1441 14.8635 59.1441 13.2405C59.1441 11.5489 60.204 10.3429 61.874 10.3429C63.4521 10.3429 64.5132 11.4815 64.5132 13.151C64.5132 14.8635 63.4196 16.0591 61.7833 16.0591ZM61.8298 11.2328C60.9501 11.2328 60.3864 12.0554 60.3864 13.2056C60.3864 14.3338 60.9617 15.1563 61.8182 15.1563C62.6747 15.1563 63.2499 14.2768 63.2499 13.1824C63.2499 12.067 62.6863 11.2328 61.8298 11.2328ZM73.6452 10.4556L71.931 15.9347H70.8142L70.1042 13.5553C69.9276 12.9733 69.7806 12.3827 69.6637 11.7859H69.6405C69.551 12.3831 69.3813 12.9814 69.2012 13.5553L68.4458 15.9347H67.3174L65.7043 10.4556H66.956L67.5765 13.0604C67.723 13.6808 67.8461 14.2664 67.9484 14.8194H67.9717C68.0611 14.3581 68.2076 13.7819 68.4226 13.072L69.2012 10.4568H70.1936L70.9386 13.0162C71.1187 13.6367 71.2651 14.2455 71.379 14.8206H71.4116C71.4906 14.2571 71.6149 13.6587 71.7834 13.0162L72.4493 10.4568L73.6452 10.4556ZM79.9555 15.9347H78.7376V12.7885C78.7376 11.8196 78.3657 11.3339 77.6324 11.3339C76.9108 11.3339 76.4145 11.9543 76.4145 12.6758V15.9347H75.1966V12.0217C75.1966 11.5372 75.185 11.0179 75.1513 10.4544H76.2228L76.2797 11.3002H76.3134C76.6411 10.7147 77.3059 10.3429 78.0508 10.3429C79.2013 10.3429 79.9567 11.2224 79.9567 12.6538L79.9555 15.9347ZM83.3141 15.9347H82.095V7.94141H83.3141V15.9347ZM87.7546 16.0591C86.1543 16.0591 85.1154 14.8635 85.1154 13.2405C85.1154 11.5489 86.1753 10.3429 87.8441 10.3429C89.4234 10.3429 90.4833 11.4815 90.4833 13.151C90.4844 14.8635 89.3897 16.0591 87.7546 16.0591ZM87.7999 11.2328C86.9202 11.2328 86.3565 12.0554 86.3565 13.2056C86.3565 14.3338 86.933 15.1563 87.7871 15.1563C88.6448 15.1563 89.2189 14.2768 89.2189 13.1824C89.22 12.067 88.6576 11.2328 87.7999 11.2328ZM95.2852 15.9347L95.1969 15.3039H95.1643C94.7925 15.8116 94.2497 16.0591 93.5618 16.0591C92.5798 16.0591 91.8825 15.3713 91.8825 14.4464C91.8825 13.0941 93.0551 12.3947 95.0853 12.3947V12.2936C95.0853 11.5721 94.703 11.2108 93.9476 11.2108C93.4072 11.2108 92.933 11.3467 92.5158 11.6174L92.2683 10.8169C92.775 10.5009 93.4072 10.3429 94.1498 10.3429C95.5815 10.3429 96.3044 11.0981 96.3044 12.6096V14.6277C96.3044 15.1807 96.3288 15.6094 96.3834 15.9359L95.2852 15.9347ZM95.1178 13.2056C93.7651 13.2056 93.0864 13.5333 93.0864 14.3105C93.0864 14.8856 93.4362 15.1668 93.922 15.1668C94.5414 15.1668 95.1178 14.6939 95.1178 14.0514V13.2056ZM102.218 15.9347L102.162 15.0552H102.128C101.778 15.7198 101.19 16.0591 100.368 16.0591C99.047 16.0591 98.0685 14.8972 98.0685 13.2626C98.0685 11.5489 99.083 10.3417 100.468 10.3417C101.202 10.3417 101.721 10.5892 102.014 11.0865H102.038V7.94141H103.257V14.4581C103.257 14.9879 103.27 15.484 103.303 15.9347H102.218ZM102.038 12.7107C102.038 11.9439 101.53 11.2898 100.755 11.2898C99.8524 11.2898 99.3004 12.0903 99.3004 13.2172C99.3004 14.3221 99.8733 15.0785 100.731 15.0785C101.497 15.0785 102.038 14.4128 102.038 13.6239V12.7107ZM110.987 16.0591C109.386 16.0591 108.349 14.8635 108.349 13.2405C108.349 11.5489 109.409 10.3429 111.077 10.3429C112.657 10.3429 113.717 11.4815 113.717 13.151C113.718 14.8635 112.624 16.0591 110.987 16.0591ZM111.032 11.2328C110.153 11.2328 109.59 12.0554 109.59 13.2056C109.59 14.3338 110.165 15.1563 111.02 15.1563C111.878 15.1563 112.452 14.2768 112.452 13.1824C112.454 12.067 111.891 11.2328 111.032 11.2328ZM120.266 15.9347H119.047V12.7885C119.047 11.8196 118.675 11.3339 117.942 11.3339C117.22 11.3339 116.725 11.9543 116.725 12.6758V15.9347H115.506V12.0217C115.506 11.5372 115.495 11.0179 115.461 10.4544H116.532L116.589 11.3002H116.623C116.95 10.7147 117.616 10.3417 118.359 10.3417C119.51 10.3417 120.266 11.2212 120.266 12.6526V15.9347ZM128.461 11.3688H127.121V14.0294C127.121 14.7067 127.355 15.0448 127.829 15.0448C128.044 15.0448 128.225 15.0216 128.37 14.9879L128.404 15.9127C128.168 16.0033 127.852 16.0486 127.459 16.0486C126.499 16.0486 125.925 15.5188 125.925 14.1316V11.3688H125.125V10.4556H125.925V9.45178L127.121 9.09045V10.4544H128.461V11.3688ZM134.908 15.9347H133.691V12.8118C133.691 11.8312 133.321 11.3351 132.586 11.3351C131.955 11.3351 131.367 11.7638 131.367 12.6317V15.9347H130.15V7.94141H131.367V11.2328H131.391C131.775 10.6357 132.33 10.3417 133.039 10.3417C134.199 10.3417 134.908 11.2433 134.908 12.6758V15.9347ZM141.514 13.4879H137.859C137.882 14.5255 138.569 15.111 139.586 15.111C140.126 15.111 140.623 15.0204 141.063 14.8519L141.252 15.6977C140.734 15.9231 140.124 16.0358 139.414 16.0358C137.699 16.0358 136.685 14.953 136.685 13.2742C136.685 11.5942 137.724 10.3313 139.276 10.3313C140.677 10.3313 141.555 11.3688 141.555 12.9361C141.563 13.121 141.549 13.3063 141.514 13.4879ZM140.397 12.6201C140.397 11.7743 139.97 11.1771 139.192 11.1771C138.492 11.1771 137.939 11.7859 137.86 12.6201H140.397Z" fill="white"/>
<defs>
<linearGradient id="paint0_linear_0_579" x1="115.7" y1="46.9116" x2="115.7" y2="-120.646" gradientUnits="userSpaceOnUse">
<stop stop-color="#1A1A1A" stop-opacity="0.1"/>
<stop offset="0.123" stop-color="#212121" stop-opacity="0.151"/>
<stop offset="0.308" stop-color="#353535" stop-opacity="0.227"/>
<stop offset="0.532" stop-color="#575757" stop-opacity="0.318"/>
<stop offset="0.783" stop-color="#858585" stop-opacity="0.421"/>
<stop offset="1" stop-color="#B3B3B3" stop-opacity="0.51"/>
</linearGradient>
</defs>
</svg>
