<svg width="158" height="47" viewBox="0 0 158 47" fill="none" xmlns="http://www.w3.org/2000/svg">
<path d="M151.455 46.7758H6.30615C3.05481 46.7758 0.500183 44.2212 0.500183 40.9699V6.13409C0.500183 2.88275 3.05481 0.328125 6.30615 0.328125H151.455C154.707 0.328125 157.261 2.88275 157.261 6.13409V40.9699C157.261 44.2212 154.707 46.7758 151.455 46.7758Z" fill="black"/>
<path d="M151.455 1.25708C154.126 1.25708 156.332 3.46335 156.332 6.13409V40.9699C156.332 43.6406 154.126 45.8469 151.455 45.8469H6.30615C3.6354 45.8469 1.42914 43.6406 1.42914 40.9699V6.13409C1.42914 3.46335 3.6354 1.25708 6.30615 1.25708H151.455ZM151.455 0.328125H6.30615C3.05481 0.328125 0.500183 2.99887 0.500183 6.13409V40.9699C0.500183 44.2212 3.05481 46.7758 6.30615 46.7758H151.455C154.707 46.7758 157.261 44.2212 157.261 40.9699V6.13409C157.261 2.99887 154.707 0.328125 151.455 0.328125Z" fill="#A6A6A6"/>
<path d="M55.5405 12.1723C55.5405 13.1012 55.3082 13.9141 54.7276 14.4947C54.0309 15.1914 53.2181 15.5397 52.173 15.5397C51.1279 15.5397 50.3151 15.1914 49.6184 14.4947C48.9217 13.7979 48.5733 12.9851 48.5733 11.94C48.5733 10.895 48.9217 10.0821 49.6184 9.38541C50.3151 8.68869 51.1279 8.34033 52.173 8.34033C52.6375 8.34033 53.102 8.45645 53.5664 8.68869C54.0309 8.92093 54.3793 9.15317 54.6115 9.50152L54.0309 10.0821C53.5664 9.50152 52.9858 9.26929 52.173 9.26929C51.4763 9.26929 50.7796 9.50152 50.3151 10.0821C49.7345 10.5466 49.5023 11.2433 49.5023 12.0561C49.5023 12.869 49.7345 13.5657 50.3151 14.0302C50.8957 14.4947 51.4763 14.843 52.173 14.843C52.9858 14.843 53.5664 14.6108 54.147 14.0302C54.4954 13.6818 54.7276 13.2173 54.7276 12.6367H52.173V11.7078H55.5405V12.1723ZM60.8819 9.26929H57.7467V11.4756H60.6497V12.2884H57.7467V14.4947H60.8819V15.4236H56.8178V8.45645H60.8819V9.26929ZM64.7139 15.4236H63.7849V9.26929H61.8109V8.45645H66.6879V9.26929H64.7139V15.4236ZM70.0554 15.4236V8.45645H70.9843V15.4236H70.0554ZM74.9324 15.4236H74.0034V9.26929H72.0294V8.45645H76.7903V9.26929H74.8163V15.4236H74.9324ZM85.9637 14.4947C85.267 15.1914 84.4542 15.5397 83.4091 15.5397C82.364 15.5397 81.5512 15.1914 80.8545 14.4947C80.1577 13.7979 79.8094 12.9851 79.8094 11.94C79.8094 10.895 80.1577 10.0821 80.8545 9.38541C81.5512 8.68869 82.364 8.34033 83.4091 8.34033C84.4542 8.34033 85.267 8.68869 85.9637 9.38541C86.6604 10.0821 87.0088 10.895 87.0088 11.94C87.0088 12.9851 86.6604 13.7979 85.9637 14.4947ZM81.5512 13.9141C82.0157 14.3785 82.7124 14.7269 83.4091 14.7269C84.1058 14.7269 84.8025 14.4947 85.267 13.9141C85.7315 13.4496 86.0798 12.7529 86.0798 11.94C86.0798 11.1272 85.8476 10.4305 85.267 9.966C84.8025 9.50153 84.1058 9.15317 83.4091 9.15317C82.7124 9.15317 82.0157 9.38541 81.5512 9.966C81.0867 10.4305 80.7383 11.1272 80.7383 11.94C80.7383 12.7529 80.9706 13.4496 81.5512 13.9141ZM88.2861 15.4236V8.45645H89.3312L92.6986 13.9141V8.45645H93.6276V15.4236H92.6986L89.0989 9.73376V15.4236H88.2861Z" fill="white"/>
<path d="M79.5767 25.6424C76.7899 25.6424 74.5836 27.7326 74.5836 30.6356C74.5836 33.4224 76.7899 35.6287 79.5767 35.6287C82.3636 35.6287 84.5699 33.5385 84.5699 30.6356C84.5699 27.6164 82.3636 25.6424 79.5767 25.6424ZM79.5767 33.5385C78.0672 33.5385 76.7899 32.2612 76.7899 30.5194C76.7899 28.7776 78.0672 27.5003 79.5767 27.5003C81.0863 27.5003 82.3636 28.6615 82.3636 30.5194C82.3636 32.2612 81.0863 33.5385 79.5767 33.5385ZM68.7776 25.6424C65.9908 25.6424 63.7845 27.7326 63.7845 30.6356C63.7845 33.4224 65.9908 35.6287 68.7776 35.6287C71.5645 35.6287 73.7708 33.5385 73.7708 30.6356C73.7708 27.6164 71.5645 25.6424 68.7776 25.6424ZM68.7776 33.5385C67.2681 33.5385 65.9908 32.2612 65.9908 30.5194C65.9908 28.7776 67.2681 27.5003 68.7776 27.5003C70.2872 27.5003 71.5645 28.6615 71.5645 30.5194C71.5645 32.2612 70.2872 33.5385 68.7776 33.5385ZM55.8884 27.152V29.2421H60.8815C60.7654 30.4033 60.3009 31.3323 59.7203 31.9129C59.0236 32.6096 57.8624 33.4224 55.8884 33.4224C52.7532 33.4224 50.4308 30.9839 50.4308 27.8487C50.4308 24.7135 52.8693 22.275 55.8884 22.275C57.5141 22.275 58.7914 22.9717 59.7203 23.7845L61.2299 22.275C59.9526 21.1138 58.3269 20.1848 56.0045 20.1848C51.8242 20.1848 48.2245 23.6684 48.2245 27.8487C48.2245 32.029 51.8242 35.5126 56.0045 35.5126C58.3269 35.5126 59.9526 34.8158 61.346 33.3063C62.7394 31.9129 63.2039 29.9388 63.2039 28.4293C63.2039 27.9648 63.2039 27.5003 63.0878 27.152H55.8884ZM108.607 28.7776C108.142 27.6164 106.981 25.6424 104.426 25.6424C101.872 25.6424 99.7815 27.6164 99.7815 30.6356C99.7815 33.4224 101.872 35.6287 104.659 35.6287C106.865 35.6287 108.258 34.2352 108.723 33.4224L107.097 32.2612C106.516 33.0741 105.82 33.6547 104.659 33.6547C103.497 33.6547 102.801 33.1902 102.22 32.1451L108.839 29.3582L108.607 28.7776ZM101.872 30.4033C101.872 28.5454 103.381 27.5003 104.426 27.5003C105.239 27.5003 106.052 27.9648 106.284 28.5454L101.872 30.4033ZM96.414 35.1642H98.6203V20.6493H96.414V35.1642ZM92.9305 26.6875C92.3499 26.1069 91.4209 25.5263 90.2597 25.5263C87.8212 25.5263 85.4988 27.7326 85.4988 30.5194C85.4988 33.3063 87.7051 35.3964 90.2597 35.3964C91.4209 35.3964 92.3499 34.8158 92.8143 34.2352H92.9305V34.932C92.9305 36.7899 91.8854 37.8349 90.2597 37.8349C88.9824 37.8349 88.0534 36.906 87.8212 36.0932L85.9633 36.906C86.5439 38.1833 87.9373 39.809 90.3758 39.809C92.9305 39.809 95.0206 38.2994 95.0206 34.6997V25.8747H92.9305V26.6875ZM90.3758 33.5385C88.8663 33.5385 87.589 32.2612 87.589 30.5194C87.589 28.7776 88.8663 27.5003 90.3758 27.5003C91.8854 27.5003 93.0466 28.7776 93.0466 30.5194C93.0466 32.2612 91.8854 33.5385 90.3758 33.5385ZM118.709 20.6493H113.484V35.1642H115.69V29.7066H118.709C121.147 29.7066 123.47 27.9648 123.47 25.1779C123.47 22.3911 121.147 20.6493 118.709 20.6493ZM118.825 27.6164H115.69V22.6233H118.825C120.451 22.6233 121.38 24.0167 121.38 25.0618C121.264 26.3391 120.335 27.6164 118.825 27.6164ZM132.179 25.5263C130.553 25.5263 128.927 26.223 128.347 27.7326L130.321 28.5454C130.785 27.7326 131.482 27.5003 132.295 27.5003C133.456 27.5003 134.501 28.197 134.617 29.3582V29.4744C134.269 29.2421 133.34 28.8938 132.411 28.8938C130.321 28.8938 128.231 30.055 128.231 32.1451C128.231 34.1191 129.973 35.3964 131.83 35.3964C133.34 35.3964 134.037 34.6997 134.617 34.003H134.733V35.1642H136.824V29.5905C136.591 27.0359 134.617 25.5263 132.179 25.5263ZM131.947 33.5385C131.25 33.5385 130.205 33.1902 130.205 32.2612C130.205 31.1 131.482 30.7517 132.527 30.7517C133.456 30.7517 133.921 30.9839 134.501 31.2161C134.269 32.6096 133.108 33.5385 131.947 33.5385ZM144.139 25.8747L141.701 32.1451H141.584L139.03 25.8747H136.707L140.539 34.6997L138.333 39.5767H140.539L146.461 25.8747H144.139ZM124.631 35.1642H126.837V20.6493H124.631V35.1642Z" fill="white"/>
<path d="M12.5789 9.03784C12.2305 9.3862 12.1144 9.9668 12.1144 10.6635V36.3259C12.1144 37.0226 12.3466 37.6032 12.695 37.9515L12.8111 38.0677L27.2099 23.6689V23.4366L12.5789 9.03784Z" fill="url(#paint0_linear_0_566)"/>
<path d="M31.8557 28.5457L27.0948 23.7848V23.4364L31.8557 18.6755L31.9719 18.7917L37.6617 22.043C39.2874 22.972 39.2874 24.4815 37.6617 25.4105L31.8557 28.5457Z" fill="url(#paint1_linear_0_566)"/>
<path d="M31.9714 28.4293L27.0943 23.5522L12.5794 38.0672C13.16 38.6478 13.9729 38.6478 15.0179 38.1833L31.9714 28.4293Z" fill="url(#paint2_linear_0_566)"/>
<path d="M31.9714 18.6751L15.0179 9.03723C13.9729 8.45663 13.16 8.57275 12.5794 9.15335L27.0943 23.5521L31.9714 18.6751Z" fill="url(#paint3_linear_0_566)"/>
<path opacity="0.2" d="M31.8552 28.3135L15.0179 37.8353C14.089 38.4159 13.2762 38.2997 12.6956 37.8353L12.5794 37.9514L12.6956 38.0675C13.2762 38.532 14.089 38.6481 15.0179 38.0675L31.8552 28.3135Z" fill="black"/>
<path opacity="0.12" d="M12.5789 37.8349C12.2305 37.4866 12.1144 36.906 12.1144 36.2092V36.3254C12.1144 37.0221 12.3466 37.6027 12.695 37.951V37.8349H12.5789ZM37.6607 25.0618L31.8547 28.3131L31.9708 28.4293L37.6607 25.1779C38.4735 24.7134 38.8218 24.1328 38.8218 23.5522C38.8218 24.1328 38.3574 24.5973 37.6607 25.0618Z" fill="black"/>
<path opacity="0.25" d="M15.0174 9.15373L37.6607 22.043C38.3574 22.5074 38.8218 22.9719 38.8218 23.5525C38.8218 22.9719 38.4735 22.3913 37.6607 21.9269L15.0174 9.03761C13.3917 8.10866 12.1144 8.80537 12.1144 10.6633V10.7794C12.1144 9.03761 13.3917 8.22477 15.0174 9.15373Z" fill="white"/>
<defs>
<linearGradient id="paint0_linear_0_566" x1="25.8165" y1="10.4429" x2="6.32819" y2="29.93" gradientUnits="userSpaceOnUse">
<stop stop-color="#00A0FF"/>
<stop offset="0.007" stop-color="#00A1FF"/>
<stop offset="0.26" stop-color="#00BEFF"/>
<stop offset="0.512" stop-color="#00D2FF"/>
<stop offset="0.76" stop-color="#00DFFF"/>
<stop offset="1" stop-color="#00E3FF"/>
</linearGradient>
<linearGradient id="paint1_linear_0_566" x1="39.7913" y1="23.5537" x2="11.6939" y2="23.5537" gradientUnits="userSpaceOnUse">
<stop stop-color="#FFE000"/>
<stop offset="0.409" stop-color="#FFBD00"/>
<stop offset="0.775" stop-color="#FFA500"/>
<stop offset="1" stop-color="#FF9C00"/>
</linearGradient>
<linearGradient id="paint2_linear_0_566" x1="29.332" y1="26.2183" x2="2.90554" y2="52.6448" gradientUnits="userSpaceOnUse">
<stop stop-color="#FF3A44"/>
<stop offset="1" stop-color="#C31162"/>
</linearGradient>
<linearGradient id="paint3_linear_0_566" x1="8.97626" y1="0.532654" x2="20.7775" y2="12.3339" gradientUnits="userSpaceOnUse">
<stop stop-color="#32A071"/>
<stop offset="0.069" stop-color="#2DA771"/>
<stop offset="0.476" stop-color="#15CF74"/>
<stop offset="0.801" stop-color="#06E775"/>
<stop offset="1" stop-color="#00F076"/>
</linearGradient>
</defs>
</svg>
