<svg width="855" height="283" viewBox="0 0 855 283" fill="none" xmlns="http://www.w3.org/2000/svg">
<g opacity="0.1">
<mask id="mask0_0_208" style="mask-type:luminance" maskUnits="userSpaceOnUse" x="0" y="0" width="855" height="184">
<path d="M0.00531006 15.4615C37.4681 22.5626 72.0357 47.7276 111.98 102.195C127.278 123.055 144.734 139.384 163.542 151.727C203.426 177.901 249.405 186.158 293.811 181.713C338.217 177.267 381.078 160.111 414.686 135.465C433.751 121.484 449.841 105.091 461.554 87.2439C493.05 39.2497 521.567 5.49933 553.907 0.611715C586.246 -4.27591 622.316 19.72 668.83 87.2354C689.573 117.348 714.662 136.212 741.474 146.382C770.125 157.254 800.754 158.193 830.162 152.331C838.569 150.646 846.863 148.436 854.994 145.713V146.608C846.915 149.302 838.676 151.492 830.325 153.165C800.772 159.058 769.978 158.106 741.172 147.179C714.207 136.952 688.98 117.983 668.131 87.7215C621.833 20.5177 586.04 -3.38292 554.034 1.45584C522.028 6.29459 493.639 39.9081 462.267 87.713C450.498 105.646 434.337 122.112 415.19 136.153C381.467 160.884 338.474 178.098 293.898 182.56C249.322 187.023 203.135 178.728 163.08 152.441C144.191 140.045 126.661 123.646 111.299 102.7C71.6118 48.5827 37.2433 23.513 0.0114181 16.3874L0.00531006 15.4615Z" fill="white"/>
</mask>
<g mask="url(#mask0_0_208)">
<path d="M854.994 -4.27466H0.00515747V187.022H854.994V-4.27466Z" fill="#000F02"/>
</g>
<mask id="mask1_0_208" style="mask-type:luminance" maskUnits="userSpaceOnUse" x="0" y="3" width="855" height="194">
<path d="M0.00521851 37.074C38.9437 41.9995 75.1873 65.8096 118.169 120.475C134.159 140.812 152.153 156.546 171.365 168.252C212.104 193.071 258.333 199.78 302.565 193.848C346.797 187.916 389.054 169.328 421.82 143.569C440.405 128.955 455.939 112.031 467.045 93.8014C496.912 44.7786 524.28 10.0913 556.435 4.1213C588.59 -1.84866 625.456 20.922 674.198 86.8383C695.942 116.237 721.647 134.25 748.785 143.513C777.784 153.414 808.429 153.33 837.624 146.482C843.481 145.109 849.27 143.472 854.992 141.571V142.463C849.339 144.326 843.614 145.941 837.817 147.307C808.478 154.189 777.674 154.271 748.519 144.316C721.224 134.999 695.379 116.891 673.522 87.3428C624.998 21.7307 588.424 -0.958109 556.59 4.95321C524.757 10.8645 497.521 45.4102 467.769 94.2424C456.611 112.56 441.016 129.56 422.345 144.235C389.472 170.083 347.079 188.731 302.68 194.687C258.281 200.644 211.844 193.904 170.927 168.975C151.625 157.219 133.56 141.419 117.505 121C74.7818 66.6635 38.7312 42.9401 0.0076617 37.9987L0.00521851 37.074Z" fill="white"/>
</mask>
<g mask="url(#mask1_0_208)">
<path d="M854.994 -1.85229H0.00506592V200.643H854.994V-1.85229Z" fill="#000F02"/>
</g>
<mask id="mask2_0_208" style="mask-type:luminance" maskUnits="userSpaceOnUse" x="0" y="6" width="855" height="204">
<path d="M0.00506772 59.0689C40.4498 61.5805 78.378 83.8832 124.569 138.738C141.233 158.528 159.751 173.648 179.338 184.701C220.886 208.141 267.315 213.293 311.325 205.879C355.334 198.466 396.949 178.473 428.827 151.628C446.907 136.399 461.867 118.964 472.356 100.372C500.562 50.3735 526.752 14.7871 558.685 7.74092C590.619 0.694729 628.226 22.2169 679.161 86.4596C701.883 115.113 728.175 132.254 755.607 140.601C784.926 149.519 815.546 148.409 844.497 140.585C848.022 139.632 851.522 138.582 854.994 137.433V138.325C851.595 139.442 848.169 140.469 844.716 141.405C815.626 149.266 784.843 150.381 755.363 141.405C727.771 133.009 701.328 115.784 678.497 86.9861C627.801 23.0402 590.485 1.59627 558.867 8.56672C527.25 15.5372 501.186 50.9843 473.092 100.786C462.553 119.468 447.532 136.982 429.37 152.276C397.382 179.212 355.637 199.273 311.465 206.714C267.293 214.155 220.657 208.98 178.922 185.437C159.242 174.335 140.652 159.15 123.92 139.282C77.9883 84.7335 40.2409 62.5199 0.00262451 59.9814L0.00506772 59.0689Z" fill="white"/>
</mask>
<g mask="url(#mask2_0_208)">
<path d="M854.994 0.691162H0.00540161V214.157H854.994V0.691162Z" fill="#000F02"/>
</g>
<mask id="mask3_0_208" style="mask-type:luminance" maskUnits="userSpaceOnUse" x="0" y="9" width="855" height="215">
<path d="M0.00521851 81.4814C41.9855 81.3324 81.5971 101.947 131.185 156.976C148.503 176.193 167.512 190.685 187.466 201.076C229.78 223.108 276.355 226.702 320.089 217.812C363.822 208.922 404.746 187.548 435.702 159.648C453.265 143.821 467.626 125.894 477.481 106.959C503.99 56.0441 528.973 19.5989 560.656 11.485C592.339 3.37113 630.643 23.6192 683.705 86.1174C707.37 113.991 734.227 130.238 761.926 137.66C791.526 145.593 822.095 143.454 850.763 134.665C852.176 134.231 853.585 133.781 854.989 133.315V134.207C853.668 134.643 852.341 135.065 851.011 135.474C822.199 144.307 791.47 146.456 761.712 138.48C733.859 131.015 706.85 114.681 683.063 86.6647C630.246 24.4547 592.234 4.27146 560.87 12.3035C529.505 20.3355 504.648 56.6341 478.239 107.355C468.334 126.379 453.908 144.386 436.269 160.282C405.201 188.274 364.155 209.725 320.255 218.643C276.354 227.56 229.572 223.955 187.075 201.827C167.035 191.392 147.945 176.84 130.556 157.543C81.2257 102.8 41.7949 82.2694 0.00521851 82.3915V81.4814Z" fill="white"/>
</mask>
<g mask="url(#mask3_0_208)">
<path d="M854.994 3.36743H0.00506592V227.565H854.994V3.36743Z" fill="#000F02"/>
</g>
<mask id="mask4_0_208" style="mask-type:luminance" maskUnits="userSpaceOnUse" x="0" y="13" width="855" height="224">
<path d="M0.00521851 104.367C43.5467 101.279 84.8246 120.004 138.013 175.187C155.971 193.813 175.451 207.66 195.741 217.372C238.767 237.971 285.437 239.999 328.85 229.648C372.263 219.298 412.442 196.561 442.447 167.64C459.471 151.23 473.224 132.832 482.441 113.578C507.229 61.8005 530.972 24.5368 562.364 15.3614C593.755 6.18596 632.718 25.1342 687.846 85.822C712.434 112.89 739.822 128.227 767.753 134.719C797.095 141.536 827.048 138.594 854.994 129.233V130.126C826.985 139.462 796.974 142.377 767.564 135.545C739.468 129.018 711.933 113.6 687.22 86.3986C632.346 25.9966 593.677 7.09851 562.598 16.1799C531.52 25.2612 507.894 62.371 483.203 113.946C473.939 133.293 460.128 151.775 443.034 168.252C412.923 197.275 372.62 220.089 329.046 230.477C285.471 240.864 238.595 238.827 195.377 218.138C174.996 208.383 155.431 194.478 137.402 175.777C84.4691 120.856 43.3635 102.21 0.00521851 105.278V104.367Z" fill="white"/>
</mask>
<g mask="url(#mask4_0_208)">
<path d="M854.994 6.18848H0.00506592V240.865H854.994V6.18848Z" fill="#000F02"/>
</g>
<mask id="mask5_0_208" style="mask-type:luminance" maskUnits="userSpaceOnUse" x="0" y="16" width="855" height="235">
<path d="M0.00521851 127.801C45.1311 121.46 88.041 138.055 145.049 193.359C163.618 211.372 183.555 224.557 204.16 233.583C247.856 252.728 294.567 253.188 337.608 241.388C380.648 229.587 420.041 205.513 449.06 175.6C465.523 158.629 478.65 139.78 487.216 120.228C510.259 67.6458 532.736 29.6076 563.797 19.3877C594.857 9.16779 634.439 26.7991 691.576 85.5984C717.059 111.821 744.945 126.231 773.079 131.775C800.825 137.246 828.822 134.103 854.996 125.178V126.075C828.768 134.972 800.722 138.088 772.916 132.606C744.622 127.024 716.582 112.54 690.969 86.1848C634.1 27.6591 594.819 10.0718 564.064 20.1903C533.309 30.3088 510.939 68.1894 487.993 120.563C479.384 140.216 466.199 159.151 449.668 176.19C420.549 206.204 381.033 230.359 337.83 242.204C294.627 254.048 247.709 253.587 203.821 234.359C183.124 225.292 163.101 212.052 144.457 193.967C87.7075 138.907 44.9638 122.388 0.00521851 128.711V127.801Z" fill="white"/>
</mask>
<g mask="url(#mask5_0_208)">
<path d="M854.994 9.16162H0.00506592V254.052H854.994V9.16162Z" fill="#000F02"/>
</g>
<mask id="mask6_0_208" style="mask-type:luminance" maskUnits="userSpaceOnUse" x="0" y="20" width="855" height="244">
<path d="M0.00521851 151.833C46.7387 141.891 91.2257 156.099 152.296 211.488C171.457 228.869 191.827 241.376 212.724 249.707C257.036 267.374 303.733 266.267 346.358 253.028C388.983 239.79 427.542 214.407 455.54 183.538C471.421 166.025 483.91 146.745 491.821 126.916C513.077 73.5912 534.272 34.8189 564.974 23.5618C595.677 12.3048 635.827 28.5997 694.902 85.4468C721.25 110.802 749.606 124.268 777.909 128.869C804.19 133.144 830.438 129.773 854.999 121.188V122.084C830.39 130.635 804.104 133.985 777.775 129.704C749.311 125.077 720.798 111.541 694.316 86.0576C635.514 29.4731 595.665 13.2136 565.267 24.3571C534.85 35.5091 513.782 74.1141 492.607 127.227C484.666 147.152 472.122 166.518 456.17 184.104C428.073 215.082 389.393 240.548 346.612 253.837C303.832 267.126 256.919 268.24 212.412 250.492C191.425 242.126 170.968 229.565 151.728 212.115C90.9081 156.952 46.586 142.819 0.00521851 152.752V151.833Z" fill="white"/>
</mask>
<g mask="url(#mask6_0_208)">
<path d="M854.994 12.2986H0.00506592V268.237H854.994V12.2986Z" fill="#000F02"/>
</g>
<mask id="mask7_0_208" style="mask-type:luminance" maskUnits="userSpaceOnUse" x="0" y="23" width="855" height="255">
<path d="M0.00521851 176.534C48.3732 162.593 94.3567 174.137 159.751 229.565C179.488 246.294 200.264 258.111 221.427 265.735C266.305 281.906 312.945 279.234 355.096 264.575C397.247 249.916 434.939 223.248 461.883 191.455C477.172 173.418 489.003 153.731 496.24 133.649C515.699 79.6407 535.575 40.1781 565.886 27.8974C596.196 15.6166 636.867 30.5556 697.818 85.3883C725.003 109.845 753.793 122.351 782.231 126C807.185 129.201 831.878 125.586 854.991 117.244V118.144C831.841 126.451 807.117 130.044 782.125 126.838C753.517 123.174 724.569 110.591 697.248 86.0186C636.583 31.4388 596.212 16.5255 566.208 28.6841C536.204 40.8427 516.422 80.1391 497.041 133.933C489.77 154.115 477.885 173.892 462.536 192.002C435.497 223.904 397.685 250.649 355.375 265.37C313.065 280.092 266.219 282.777 221.142 266.53C199.886 258.87 179.017 247.003 159.207 230.21C94.0599 174.991 48.2328 163.524 0.00521851 177.463V176.534Z" fill="white"/>
</mask>
<g mask="url(#mask7_0_208)">
<path d="M854.994 15.6106H0.00506592V282.772H854.994V15.6106Z" fill="#000F02"/>
</g>
<mask id="mask8_0_208" style="mask-type:luminance" maskUnits="userSpaceOnUse" x="0" y="27" width="855" height="265">
<path d="M0.00521851 202.022C50.0371 183.644 97.4034 192.177 167.411 247.587C187.689 263.643 208.857 274.756 230.267 281.67C275.665 296.329 322.186 292.088 363.822 276.02C405.458 259.952 442.234 232.043 468.098 199.362C482.772 180.823 493.936 160.75 500.493 140.435C518.128 85.8048 536.67 45.6985 566.55 32.4075C596.43 19.1165 637.581 32.6811 700.336 85.4383C728.325 108.968 757.52 120.498 786.069 123.193C809.842 125.435 833.172 121.549 854.994 113.358V114.26C833.144 122.417 809.789 126.279 785.99 124.032C757.282 121.325 727.925 109.732 699.793 86.0821C637.327 33.5704 596.477 20.0192 566.895 33.1771C537.312 46.3349 518.865 86.2751 501.295 140.691C494.71 161.105 483.496 181.262 468.76 199.883C442.806 232.674 405.918 260.679 364.127 276.806C322.336 292.932 275.604 297.192 230.008 282.471C208.508 275.531 187.252 264.372 166.887 248.251C97.1139 193.03 49.9112 184.577 0.00521851 202.965V202.022Z" fill="white"/>
</mask>
<g mask="url(#mask8_0_208)">
<path d="M854.994 19.1067H0.00506592V297.19H854.994V19.1067Z" fill="#000F02"/>
</g>
<mask id="mask9_0_208" style="mask-type:luminance" maskUnits="userSpaceOnUse" x="0" y="31" width="855" height="275">
<path d="M0.00488641 228.368C51.7409 205.049 100.337 210.214 175.276 265.544C196.086 280.908 217.61 291.305 239.239 297.493C285.103 310.616 331.457 304.823 372.529 287.366C413.602 269.91 449.42 240.779 474.174 207.251C488.216 188.231 498.701 167.794 504.573 147.271C520.365 92.079 537.55 51.3753 566.97 37.0826C596.39 22.7898 637.969 34.9728 702.459 85.5935C731.223 108.171 760.787 118.718 789.41 120.451C812.151 121.827 834.304 117.641 854.994 109.508V110.416C834.284 118.513 812.116 122.674 789.36 121.296C760.573 119.554 730.845 108.952 701.936 86.2605C637.743 35.8732 596.462 23.7011 567.338 37.8448C538.214 51.9885 521.119 92.5249 505.389 147.498C499.489 168.119 488.957 188.649 474.849 207.751C450.01 241.395 414.083 270.621 372.857 288.141C331.63 305.661 285.068 311.486 239.002 298.305C217.281 292.089 195.666 281.649 174.767 266.219C100.062 211.065 51.6297 205.994 0 229.327L0.00488641 228.368Z" fill="white"/>
</mask>
<g mask="url(#mask9_0_208)">
<path d="M854.994 22.7922H0.00494385V311.488H854.994V22.7922Z" fill="#000F02"/>
</g>
<mask id="mask10_0_208" style="mask-type:luminance" maskUnits="userSpaceOnUse" x="0" y="35" width="855" height="285">
<path d="M0.00521851 255.721C53.5003 226.891 103.122 228.263 183.342 283.428C204.656 298.087 226.517 307.754 248.343 313.213C294.622 324.79 340.753 317.442 381.218 298.619C421.682 279.795 456.501 249.477 480.116 215.138C493.512 195.658 503.306 174.881 508.486 154.17C522.413 98.4802 538.226 57.2219 567.149 41.9555C596.071 26.6892 638.037 37.4637 704.19 85.8928C733.696 107.493 763.597 117.044 792.26 117.813C814.127 118.401 835.281 113.882 854.994 105.711V106.622C835.269 114.752 814.112 119.242 792.241 118.654C763.411 117.878 733.344 108.281 703.689 86.572C637.845 38.3677 596.176 27.5871 567.543 42.7007C538.91 57.8143 523.183 98.9004 509.308 154.372C504.103 175.178 494.266 196.049 480.811 215.614C457.112 250.073 422.19 280.489 381.573 299.383C340.956 318.278 294.618 325.659 248.138 314.033C226.22 308.553 204.266 298.843 182.862 284.121C102.868 229.114 53.4074 227.843 0.00521851 256.712V255.721Z" fill="white"/>
</mask>
<g mask="url(#mask10_0_208)">
<path d="M854.994 26.6819H0.00506592V325.662H854.994V26.6819Z" fill="#000F02"/>
</g>
<mask id="mask11_0_208" style="mask-type:luminance" maskUnits="userSpaceOnUse" x="0" y="39" width="855" height="295">
<path d="M0.00521851 284.22C55.3437 249.236 105.719 246.324 191.607 301.235C213.4 315.169 235.574 324.098 257.573 328.821C304.215 338.839 350.075 329.948 389.885 309.777C429.694 289.606 463.472 258.137 485.922 223.025C498.657 203.113 507.749 182.012 512.231 161.14C524.284 105.013 538.701 63.2469 567.094 47.0192C595.486 30.7915 637.793 40.1514 705.534 86.3327C735.748 106.93 765.953 115.47 794.628 115.285C815.78 115.143 836.107 110.25 854.994 101.942V102.87C836.103 111.129 815.781 115.988 794.631 116.13C765.792 116.321 735.422 107.738 705.056 87.0364C637.63 41.07 595.624 31.6979 567.515 47.7595C539.406 63.8211 525.066 105.419 513.06 161.321C508.556 182.291 499.424 203.479 486.636 223.484C464.108 258.72 430.222 290.291 390.262 310.538C350.303 330.785 304.24 339.717 257.394 329.656C235.305 324.912 213.039 315.945 191.153 301.952C105.482 247.175 55.2655 250.196 0.00521851 285.243V284.22Z" fill="white"/>
</mask>
<g mask="url(#mask11_0_208)">
<path d="M854.994 30.783H0.00506592V339.712H854.994V30.783Z" fill="#000F02"/>
</g>
<mask id="mask12_0_208" style="mask-type:luminance" maskUnits="userSpaceOnUse" x="0" y="43" width="855" height="306">
<path d="M0.00521851 314.024C57.2982 272.142 108.085 264.408 200.069 318.956C222.322 332.149 244.78 340.334 266.92 344.316C313.87 352.762 359.406 342.336 398.518 320.839C437.63 299.343 470.336 266.76 491.594 230.914C503.655 210.577 512.033 189.188 515.812 168.18C525.976 111.681 538.982 69.4549 566.814 52.2841C594.646 35.1133 637.243 43.0464 706.494 86.9287C737.382 106.5 767.858 114.023 796.51 112.869C817.117 112.04 836.786 106.723 854.994 98.1759V99.1105C836.792 107.604 817.134 112.885 796.542 113.715C767.726 114.874 737.084 107.315 706.041 87.6445C637.109 43.965 594.813 36.0039 567.259 53.0036C539.704 70.0034 526.768 112.052 516.644 168.33C512.846 189.442 504.428 210.925 492.322 231.345C470.991 267.316 438.184 300.001 398.925 321.583C359.665 343.165 313.929 353.63 266.771 345.148C244.538 341.147 221.977 332.932 199.638 319.685C107.864 265.26 57.2396 273.126 0.00521851 315.098V314.024Z" fill="white"/>
</mask>
<g mask="url(#mask12_0_208)">
<path d="M854.994 35.1035H0.00506592V353.631H854.994V35.1035Z" fill="#000F02"/>
</g>
<mask id="mask13_0_208" style="mask-type:luminance" maskUnits="userSpaceOnUse" x="0" y="48" width="855" height="315">
<path d="M0.00521851 345.351C59.4116 295.726 110.175 282.532 208.724 336.587C231.407 349.029 254.127 356.45 276.388 359.689C323.597 366.554 368.757 354.606 407.125 331.809C445.493 309.013 477.086 275.351 497.129 238.811C508.501 218.082 516.155 196.422 519.228 175.302C527.49 118.497 539.072 75.8524 566.313 57.7569C593.555 39.6613 636.391 46.1626 707.077 87.6958C738.604 106.22 769.314 112.714 797.914 110.6C818.146 109.104 837.326 103.298 854.994 94.3975V95.3467C837.336 104.187 818.179 109.951 797.974 111.445C769.214 113.571 738.338 107.047 706.649 88.4251C636.285 47.0837 593.75 40.547 566.776 58.4629C539.802 76.3789 528.296 118.837 520.061 175.42C516.978 196.654 509.291 218.398 497.872 239.219C477.764 275.884 446.067 309.652 407.555 332.539C369.043 355.425 323.684 367.423 276.269 360.527C253.913 357.275 231.092 349.822 208.317 337.33C109.969 283.388 59.386 296.724 0.00521851 346.468V345.351Z" fill="white"/>
</mask>
<g mask="url(#mask13_0_208)">
<path d="M854.994 39.6516H0.00506592V367.421H854.994V39.6516Z" fill="#000F02"/>
</g>
<mask id="mask14_0_208" style="mask-type:luminance" maskUnits="userSpaceOnUse" x="6" y="52" width="849" height="321">
<path d="M341.685 372.722C368.27 367.646 393.259 357.06 415.697 342.688C453.29 318.609 483.725 283.913 502.531 246.722C513.2 225.622 520.122 203.722 522.486 182.504C528.838 125.455 538.977 82.4465 565.601 63.447C592.224 44.4474 635.249 49.5073 707.29 88.6461C739.418 106.1 770.331 111.561 798.843 108.489C818.877 106.33 837.73 99.9569 854.994 90.5726V91.5364C837.747 100.85 818.926 107.173 798.932 109.33C770.259 112.42 739.18 106.933 706.885 89.3889C635.177 50.4321 592.444 45.3258 566.092 64.1372C539.739 82.9486 529.654 125.768 523.33 182.597C520.956 203.915 514.002 225.914 503.288 247.097C484.418 284.418 453.877 319.235 416.156 343.396C394.792 357.078 371.121 367.346 345.962 372.714L341.685 372.722ZM6.11176 372.722C65.1578 318.849 115.445 302.48 217.571 354.119C235.65 363.262 253.653 369.326 271.35 372.722H267.099C250.648 369.191 233.951 363.351 217.191 354.875C115.975 303.699 65.8749 319.621 7.38222 372.722H6.11176Z" fill="white"/>
</mask>
<g mask="url(#mask14_0_208)">
<path d="M854.994 44.4377H6.11545V372.722H854.994V44.4377Z" fill="#000F02"/>
</g>
<mask id="mask15_0_208" style="mask-type:luminance" maskUnits="userSpaceOnUse" x="43" y="57" width="812" height="316">
<path d="M390.38 372.722C402.206 367.308 413.534 360.868 424.234 353.476C460.996 328.149 490.252 292.451 507.799 254.648C517.753 233.203 523.939 211.081 525.587 189.798C530.02 132.564 538.716 89.2435 564.678 69.3596C590.639 49.4756 633.82 53.0915 707.131 89.7896C739.828 106.159 770.907 110.578 799.3 106.55C819.323 103.711 838.013 96.6709 854.994 86.6599V87.6371C838.032 97.5675 819.386 104.553 799.421 107.384C770.868 111.435 739.623 106.993 706.758 90.5421C633.785 54.0163 590.903 50.3454 565.196 70.0302C539.489 89.7151 530.847 132.847 526.432 189.858C524.776 211.244 518.564 233.463 508.567 254.999C490.961 292.932 461.604 328.754 424.714 354.167C414.478 361.238 403.669 367.443 392.402 372.718L390.38 372.722ZM43.9943 372.722C91.0564 337.247 140.001 331.35 226.6 371.548C227.458 371.946 228.313 372.337 229.166 372.722H227.117L226.24 372.318C140.685 332.605 92.0203 338.096 45.459 372.722H43.9943Z" fill="white"/>
</mask>
<g mask="url(#mask15_0_208)">
<path d="M854.994 49.4683H43.9945V372.722H854.994V49.4683Z" fill="#000F02"/>
</g>
<mask id="mask16_0_208" style="mask-type:luminance" maskUnits="userSpaceOnUse" x="92" y="62" width="763" height="311">
<path d="M420.349 372.722C424.573 370.008 428.703 367.157 432.738 364.171C468.63 337.624 496.672 300.964 512.94 262.596C522.169 240.828 527.609 218.512 528.542 197.184C531.053 139.833 538.289 96.2459 563.573 75.5031C588.856 54.7604 632.13 56.9238 706.633 91.1396C739.861 106.4 771.069 109.774 799.311 104.796C819.502 101.237 838.179 93.4081 855 82.6019V83.6072C838.208 94.3207 819.581 102.084 799.458 105.631C771.057 110.64 739.68 107.246 706.281 91.908C632.123 57.8486 589.142 55.6265 564.11 76.1494C539.079 96.6723 531.881 140.094 529.381 197.222C528.443 218.65 522.981 241.067 513.713 262.926C497.388 301.428 469.247 338.215 433.235 364.851C429.539 367.585 425.76 370.209 421.899 372.722H420.349ZM92.3493 372.722C119.514 362.017 150.449 361.215 190.906 372.722H187.738C150.054 362.461 120.738 363.15 94.9171 372.722H92.3493Z" fill="white"/>
</mask>
<g mask="url(#mask16_0_208)">
<path d="M854.994 54.7517H92.3457V372.722H854.994V54.7517Z" fill="#000F02"/>
</g>
<mask id="mask17_0_208" style="mask-type:luminance" maskUnits="userSpaceOnUse" x="443" y="67" width="412" height="306">
<path d="M443.742 372.722C477.476 345.199 503.332 308.511 517.936 270.572C526.43 248.506 531.117 226.019 531.335 204.673C531.917 147.27 537.687 103.464 562.262 81.8847C586.837 60.3052 630.157 61.0137 705.766 92.7106C739.489 106.849 770.793 109.174 798.852 103.252C819.412 98.9114 838.236 90.1403 854.995 78.3433V79.3805C838.268 91.0687 819.505 99.7616 799.024 104.085C770.805 110.043 739.334 107.708 705.442 93.4985C630.18 61.947 587.148 61.1615 562.82 82.5261C538.492 103.891 532.763 147.508 532.181 204.686C531.963 226.134 527.256 248.721 518.725 270.88C504.188 308.652 478.535 345.187 445.082 372.728L443.742 372.722Z" fill="white"/>
</mask>
<g mask="url(#mask17_0_208)">
<path d="M854.994 60.2942H443.742V372.721H854.994V60.2942Z" fill="#000F02"/>
</g>
<mask id="mask18_0_208" style="mask-type:luminance" maskUnits="userSpaceOnUse" x="463" y="72" width="392" height="301">
<path d="M463.284 372.722C490.494 345.698 511.049 312.475 522.806 278.576C530.554 256.238 534.485 233.605 533.986 212.262C532.642 154.873 536.941 110.899 560.774 88.5144C584.608 66.1298 627.932 65.3761 704.556 94.5186C738.734 107.516 770.1 108.791 797.942 101.93C819.085 96.7187 838.204 86.8164 854.99 73.7941V74.8606C838.241 87.7534 819.198 97.5604 798.146 102.747C770.144 109.648 738.61 108.367 704.258 95.3065C627.982 66.2984 584.948 66.9581 561.351 89.1264C537.753 111.295 533.49 155.082 534.826 212.247C535.328 233.688 531.381 256.42 523.601 278.852C511.887 312.621 491.48 345.717 464.476 372.723L463.284 372.722Z" fill="white"/>
</mask>
<g mask="url(#mask18_0_208)">
<path d="M854.994 65.3699H463.284V372.722H854.994V65.3699Z" fill="#000F02"/>
</g>
<mask id="mask19_0_208" style="mask-type:luminance" maskUnits="userSpaceOnUse" x="480" y="68" width="375" height="305">
<path d="M480.111 372.722C501.904 346.889 518.165 316.901 527.544 286.615C534.539 264.029 537.708 241.278 536.492 219.965C533.225 162.652 536.044 118.558 559.114 95.3798C582.184 72.2012 625.457 70.0023 703.018 96.5562C737.614 108.406 769.003 108.621 796.602 100.832C818.559 94.6322 838.119 83.363 854.994 68.8369V69.951C838.157 84.3244 818.675 95.4825 796.832 101.647C769.079 109.482 737.519 109.265 702.75 97.3613C625.545 70.9283 582.554 73.0319 559.714 95.9784C536.873 118.925 534.08 162.829 537.338 219.918C538.559 241.332 535.377 264.183 528.353 286.862C519.006 317.042 502.853 346.923 481.217 372.721L480.111 372.722Z" fill="white"/>
</mask>
<g mask="url(#mask19_0_208)">
<path d="M854.994 68.8333H480.111V372.721H854.994V68.8333Z" fill="#000F02"/>
</g>
<mask id="mask20_0_208" style="mask-type:luminance" maskUnits="userSpaceOnUse" x="494" y="63" width="361" height="310">
<path d="M494.849 372.722C512.074 348.543 524.79 321.644 532.156 294.692C538.386 271.884 540.791 249.041 538.862 227.78C533.673 170.61 535.011 126.445 557.289 102.505C579.567 78.5656 622.742 74.9167 701.156 98.854C736.129 109.53 767.508 108.696 794.828 99.9839C817.851 92.6409 837.999 79.698 854.994 63.3298V64.5038C838.035 80.69 817.98 93.4875 795.083 100.785C767.608 109.548 736.059 110.388 700.91 99.659C622.86 75.8378 579.972 79.3804 557.908 103.079C535.845 126.778 534.536 170.756 539.707 227.702C541.645 249.063 539.233 272.01 532.973 294.912C525.631 321.775 512.996 348.586 495.888 372.72L494.849 372.722Z" fill="white"/>
</mask>
<g mask="url(#mask20_0_208)">
<path d="M854.994 63.3298H494.849V372.722H854.994V63.3298Z" fill="#000F02"/>
</g>
<mask id="mask21_0_208" style="mask-type:luminance" maskUnits="userSpaceOnUse" x="507" y="57" width="348" height="316">
<path d="M507.865 372.722C521.222 350.529 530.98 326.624 536.635 302.813C542.099 279.809 543.735 256.897 541.093 235.713C533.988 178.75 533.844 134.565 555.307 109.889C576.771 85.2123 619.798 80.1182 698.967 101.411C734.28 110.907 765.614 109.021 792.626 99.3963C817.016 90.7095 837.891 75.7156 854.994 57.0825V58.3261C837.915 76.7393 817.14 91.5634 792.91 100.198C765.744 109.878 734.241 111.776 698.751 102.232C619.946 81.0381 577.196 86.021 555.946 110.448C534.696 134.875 534.857 178.87 541.933 235.611C544.588 256.896 542.947 279.908 537.46 303.009C531.822 326.745 522.121 350.576 508.851 372.722H507.865Z" fill="white"/>
</mask>
<g mask="url(#mask21_0_208)">
<path d="M854.994 57.0825H507.865V372.722H854.994V57.0825Z" fill="#000F02"/>
</g>
<mask id="mask22_0_208" style="mask-type:luminance" maskUnits="userSpaceOnUse" x="519" y="49" width="336" height="324">
<path d="M519.411 372.722C529.494 352.76 536.784 331.784 540.991 310.984C545.681 287.809 546.547 264.855 543.196 243.771C534.183 187.078 532.556 142.923 553.179 117.543C573.802 92.1634 616.635 85.6254 696.473 104.249C732.084 112.556 763.336 109.624 790.01 99.0923C816.115 88.7906 837.845 71.2142 854.991 49.7922V51.1433C837.861 72.3026 816.236 89.653 790.319 99.8851C763.492 110.47 732.072 113.427 696.281 105.078C616.809 86.5404 574.251 92.9538 553.833 118.081C533.415 143.208 535.057 187.167 544.031 243.639C547.397 264.823 546.529 287.878 541.821 311.15C537.625 331.89 530.376 352.806 520.359 372.718L519.411 372.722Z" fill="white"/>
</mask>
<g mask="url(#mask22_0_208)">
<path d="M854.994 49.7922H519.411V372.722H854.994V49.7922Z" fill="#000F02"/>
</g>
<mask id="mask23_0_208" style="mask-type:luminance" maskUnits="userSpaceOnUse" x="529" y="41" width="326" height="332">
<path d="M529.653 372.722C536.982 355.177 542.224 337.089 545.223 319.204C549.132 295.886 549.226 272.915 545.168 251.956C534.259 195.597 531.151 151.523 550.91 125.464C570.668 99.4049 613.258 91.434 693.678 107.367C729.549 114.475 760.685 110.492 786.99 99.0763C815.101 86.8786 837.707 66.1884 854.687 41.4742L854.991 41.0295V42.5199C837.97 67.107 815.376 87.68 787.326 99.852C760.868 111.335 729.565 115.342 693.516 108.199C613.465 92.3392 571.145 100.178 551.583 125.976C532.02 151.774 535.13 195.657 545.998 251.801C550.074 272.859 549.98 295.931 546.055 319.347C543.066 337.182 537.851 355.221 530.565 372.73L529.653 372.722Z" fill="white"/>
</mask>
<g mask="url(#mask23_0_208)">
<path d="M854.994 41.0281H529.653V372.72H854.994V41.0281Z" fill="#000F02"/>
</g>
<mask id="mask24_0_208" style="mask-type:luminance" maskUnits="userSpaceOnUse" x="535" y="30" width="320" height="343">
<path d="M538.705 372.722C543.759 357.74 547.327 342.513 549.333 327.481C552.456 304.046 551.776 281.086 547.022 260.274C534.228 204.312 529.641 160.366 548.516 133.661C567.39 106.956 609.687 97.5579 690.599 110.783C726.686 116.682 757.67 111.656 783.579 99.3634C811.264 86.2287 833.163 64.7921 849.301 39.5245C851.285 36.4176 853.182 33.2565 854.992 30.0413V31.7515C853.397 34.5335 851.738 37.2752 850.014 39.9765C833.791 65.3736 811.778 86.9202 783.937 100.128C757.882 112.489 726.73 117.546 690.459 111.617C609.922 98.4521 567.89 107.708 549.205 134.147C530.519 160.586 535.1 204.342 547.844 260.083C552.624 280.992 553.304 304.061 550.165 327.59C548.165 342.585 544.616 357.773 539.592 372.721L538.705 372.722Z" fill="white"/>
</mask>
<g mask="url(#mask24_0_208)">
<path d="M854.994 30.0413H529.639V372.722H854.994V30.0413Z" fill="#000F02"/>
</g>
<mask id="mask25_0_208" style="mask-type:luminance" maskUnits="userSpaceOnUse" x="534" y="15" width="321" height="358">
<path d="M546.651 372.722C549.834 360.614 552.064 348.275 553.319 335.819C555.653 312.291 554.207 289.366 548.752 268.726C534.093 213.226 528.03 169.46 545.998 142.134C563.965 114.808 605.923 103.999 687.232 114.503C723.496 119.186 754.298 113.124 779.776 99.9657C807.006 85.9087 828.173 63.7501 843.457 37.9524C847.766 30.6646 851.619 23.1169 854.994 15.3528V17.4454C851.796 24.6261 848.187 31.6171 844.186 38.3836C828.825 64.3096 807.546 86.583 780.165 100.718C754.539 113.947 723.576 120.046 687.125 115.337C606.192 104.883 564.493 115.542 546.704 142.595C528.915 169.647 534.964 213.224 549.572 268.507C555.051 289.244 556.505 312.27 554.16 335.898C552.908 348.325 550.69 360.636 547.525 372.718L546.651 372.722Z" fill="white"/>
</mask>
<g mask="url(#mask25_0_208)">
<path d="M854.994 15.3528H528.03V372.722H854.994V15.3528Z" fill="#000F02"/>
</g>
</g>
</svg>
