<svg width="705" height="398" viewBox="0 0 705 398" fill="none" xmlns="http://www.w3.org/2000/svg">
<g opacity="0.5">
<mask id="mask0_0_557" style="mask-type:luminance" maskUnits="userSpaceOnUse" x="0" y="0" width="705" height="398">
<path d="M338.927 308.967C338.086 308.89 337.244 308.811 336.401 308.73C335.513 308.787 334.625 308.843 333.736 308.898C335.469 308.927 337.199 308.95 338.927 308.967ZM345.869 309C344.591 308.792 343.31 308.579 342.028 308.359C340.641 308.454 339.254 308.546 337.865 308.637C339.174 308.76 340.48 308.876 341.786 308.988C343.148 308.996 344.51 308.999 345.869 309ZM349.751 309.61C348.938 309.486 348.124 309.363 347.309 309.234C346.455 309.236 345.599 309.234 344.744 309.232C346.416 309.366 348.085 309.492 349.751 309.61ZM351.964 308.976C350.568 308.652 349.163 308.3 347.76 307.953C346.177 308.069 344.593 308.182 343.007 308.292C344.45 308.537 345.891 308.772 347.329 309M356.754 310.061C355.466 309.78 354.179 309.499 352.887 309.201C351.527 309.213 350.165 309.222 348.803 309.228C350.094 309.427 351.384 309.622 352.671 309.809C354.034 309.899 355.395 309.983 356.754 310.061ZM360.763 310.91C359.923 310.736 359.081 310.555 358.24 310.376C357.347 310.327 356.455 310.276 355.561 310.222C357.299 310.463 359.033 310.691 360.763 310.91ZM357.713 308.907C356.247 308.456 354.782 308.01 353.31 307.537C351.716 307.66 350.12 307.78 348.523 307.897C349.99 308.26 351.46 308.634 352.918 308.967C354.519 308.952 356.117 308.932 357.713 308.907ZM362.586 310.362C361.213 309.962 359.836 309.549 358.458 309.13C356.92 309.155 355.381 309.175 353.84 309.191C355.324 309.524 356.798 309.827 358.278 310.144C359.716 310.223 361.152 310.295 362.586 310.362ZM367.211 311.677C365.981 311.338 364.75 310.997 363.515 310.64C362.264 310.583 361.012 310.523 359.758 310.457C361.001 310.726 362.245 311 363.481 311.246C364.727 311.395 365.97 311.539 367.211 311.677ZM370.736 312.607C370.066 312.43 369.395 312.252 368.725 312.076C367.951 311.993 367.178 311.911 366.403 311.824C367.851 312.098 369.293 312.349 370.736 312.607ZM637.483 257.091C637.558 257.037 637.629 256.984 637.703 256.93L637.515 256.997C637.435 257.047 637.358 257.097 637.277 257.148L637.483 257.091ZM363.386 308.797C361.896 308.226 360.411 307.675 358.918 307.091C357.253 307.227 355.586 307.361 353.916 307.49C355.45 307.977 356.973 308.428 358.502 308.896C360.132 308.868 361.76 308.835 363.386 308.797ZM368.13 310.596C366.748 310.096 365.352 309.552 363.959 309.016C362.389 309.054 360.817 309.088 359.241 309.116C360.686 309.556 362.131 309.995 363.568 310.408C365.091 310.477 366.612 310.54 368.13 310.596ZM373.04 312.283C371.655 311.806 370.273 311.344 368.884 310.855C367.423 310.803 365.961 310.748 364.495 310.685C365.932 311.09 367.36 311.461 368.792 311.848C370.21 312 371.627 312.146 373.04 312.283ZM377.3 313.747C376.206 313.39 375.1 312.997 373.998 312.613C372.766 312.495 371.531 312.373 370.294 312.245C371.427 312.548 372.561 312.854 373.687 313.14C374.893 313.345 376.1 313.555 377.3 313.747ZM380.838 314.847C380.126 314.624 379.417 314.415 378.706 314.195C378.023 314.089 377.346 314 376.662 313.889C378.059 314.224 379.446 314.527 380.838 314.847ZM639.293 256.123L639.498 255.952L639.335 256.025L639.112 256.188L639.293 256.123ZM638.448 256.827L638.789 256.543L638.475 256.655L638.117 256.917L638.448 256.827ZM368.909 308.648C367.467 307.999 366.011 307.305 364.559 306.618C362.864 306.764 361.166 306.906 359.466 307.046C360.986 307.639 362.498 308.207 364.011 308.782C365.647 308.742 367.279 308.698 368.909 308.648ZM373.734 310.768C372.296 310.149 370.853 309.514 369.407 308.867C367.803 308.917 366.195 308.961 364.585 309.001C366.042 309.554 367.498 310.104 368.944 310.623C370.544 310.679 372.141 310.726 373.734 310.768ZM378.491 312.778C377.098 312.205 375.701 311.618 374.299 311.016C372.768 310.978 371.234 310.933 369.696 310.881C371.157 311.395 372.613 311.889 374.069 312.384C375.547 312.524 377.02 312.654 378.491 312.778ZM382.989 314.6C381.737 314.109 380.476 313.589 379.216 313.072C377.812 312.956 376.406 312.833 374.996 312.703C376.264 313.136 377.531 313.566 378.789 313.97C380.192 314.188 381.592 314.399 382.989 314.6ZM387.517 316.32C386.319 315.874 385.124 315.442 383.92 314.977C382.723 314.808 381.518 314.619 380.316 314.437C381.589 314.829 382.861 315.22 384.13 315.602C385.262 315.849 386.39 316.087 387.517 316.32ZM390.664 317.488C390.078 317.277 389.487 317.053 388.899 316.833C388.213 316.695 387.535 316.576 386.847 316.432C388.126 316.804 389.392 317.137 390.664 317.488ZM641.122 254.973C641.184 254.914 641.243 254.856 641.305 254.797C641.255 254.824 641.206 254.852 641.155 254.879C641.086 254.937 641.016 254.995 640.946 255.053L641.122 254.973ZM640.295 255.761C640.406 255.657 640.518 255.552 640.629 255.448C640.513 255.499 640.403 255.551 640.286 255.602L639.942 255.889L640.295 255.761ZM639.456 256.549L639.878 256.154C639.729 256.207 639.583 256.26 639.433 256.314L638.997 256.677L639.456 256.549ZM642.88 253.672L643.049 253.488C642.995 253.523 642.944 253.558 642.889 253.593L642.711 253.765L642.88 253.672ZM642.075 254.543L642.387 254.206L642.081 254.373C641.971 254.478 641.864 254.583 641.755 254.688L642.075 254.543ZM641.271 255.408C641.406 255.264 641.541 255.12 641.675 254.975L641.265 255.16C641.125 255.294 640.991 255.427 640.851 255.56L641.271 255.408ZM640.467 256.269C640.622 256.103 640.776 255.938 640.931 255.772L640.433 255.952L639.94 256.415L640.467 256.269ZM374.509 308.458C373.067 307.7 371.616 306.915 370.165 306.123C368.456 306.278 366.745 306.429 365.031 306.578C366.512 307.273 367.995 307.971 369.466 308.631C371.15 308.579 372.831 308.521 374.509 308.458ZM379.205 310.885C377.787 310.172 376.358 309.424 374.929 308.675C373.277 308.738 371.622 308.797 369.964 308.85C371.435 309.508 372.904 310.158 374.366 310.784C375.982 310.825 377.596 310.859 379.205 310.885ZM383.934 313.2C382.516 312.518 381.1 311.839 379.673 311.127C378.096 311.103 376.515 311.071 374.931 311.033C376.39 311.653 377.842 312.25 379.293 312.843C380.843 312.971 382.39 313.09 383.934 313.2ZM388.508 315.364C387.178 314.752 385.842 314.119 384.504 313.476C383.011 313.372 381.516 313.258 380.018 313.137C381.349 313.684 382.683 314.239 384.004 314.752C385.508 314.964 387.011 315.173 388.508 315.364ZM392.979 317.387C391.732 316.839 390.476 316.263 389.22 315.686C387.829 315.511 386.439 315.338 385.042 315.145C386.358 315.644 387.668 316.124 388.979 316.606C390.315 316.876 391.649 317.136 392.979 317.387ZM397.538 319.326C396.344 318.827 395.152 318.337 393.952 317.82C392.76 317.599 391.559 317.355 390.361 317.118C391.451 317.516 392.538 317.903 393.622 318.279C394.926 318.624 396.241 319.003 397.538 319.326ZM400.617 320.617C400.029 320.379 399.434 320.125 398.841 319.873C398.298 319.741 397.761 319.627 397.217 319.49C398.352 319.87 399.489 320.259 400.617 320.617ZM644.582 252.208L644.743 252.01L644.657 252.075L644.472 252.28L644.582 252.208ZM643.792 253.174L644.092 252.807C644.007 252.862 643.922 252.918 643.838 252.973L643.514 253.326L643.792 253.174ZM643.015 254.119C643.143 253.963 643.272 253.808 643.4 253.652L643.029 253.855C642.893 254.002 642.756 254.149 642.62 254.297L643.015 254.119ZM642.238 255.058C642.386 254.879 642.534 254.7 642.683 254.52L642.22 254.729C642.065 254.897 641.909 255.066 641.753 255.234L642.238 255.058ZM641.457 255.995C641.622 255.797 641.788 255.6 641.953 255.402L641.414 255.597L640.897 256.15L641.457 255.995ZM380.062 308.227C378.638 307.374 377.208 306.498 375.774 305.605C374.048 305.768 372.319 305.928 370.589 306.085C372.06 306.883 373.53 307.673 374.992 308.439C376.685 308.374 378.375 308.303 380.062 308.227ZM384.711 310.944C383.283 310.122 381.856 309.302 380.418 308.445C378.752 308.521 377.083 308.591 375.411 308.655C376.858 309.413 378.306 310.176 379.741 310.894C381.401 310.919 383.057 310.934 384.711 310.944ZM389.336 313.553C387.934 312.778 386.529 311.99 385.118 311.18C383.487 311.172 381.855 311.157 380.218 311.134C381.678 311.859 383.129 312.553 384.579 313.247C386.168 313.358 387.754 313.461 389.336 313.553ZM393.83 316.001C392.497 315.293 391.154 314.556 389.81 313.814C388.259 313.725 386.706 313.63 385.147 313.523C386.536 314.185 387.92 314.829 389.299 315.459C390.813 315.649 392.324 315.831 393.83 316.001ZM398.386 318.356C397.07 317.69 395.75 317.005 394.426 316.309C392.959 316.146 391.485 315.964 390.011 315.781C391.355 316.396 392.699 317.013 394.033 317.593C395.489 317.862 396.938 318.11 398.386 318.356ZM402.82 320.541C401.57 319.936 400.323 319.338 399.066 318.708C397.748 318.487 396.438 318.286 395.113 318.046C396.381 318.588 397.648 319.123 398.91 319.642C400.219 319.961 401.517 320.244 402.82 320.541ZM407.179 322.604C406.052 322.084 404.922 321.555 403.788 321.012C402.599 320.744 401.408 320.474 400.212 320.188C401.367 320.656 402.514 321.093 403.663 321.539C404.835 321.895 406.013 322.268 407.179 322.604ZM410.249 323.998C409.72 323.762 409.186 323.516 408.654 323.274C407.984 323.086 407.312 322.889 406.641 322.694C407.849 323.148 409.048 323.569 410.249 323.998ZM646.217 250.599L646.335 250.437L646.275 250.488L646.136 250.661L646.217 250.599ZM645.471 251.627L645.741 251.254L645.522 251.421L645.225 251.787L645.471 251.627ZM644.702 252.677C644.829 252.504 644.956 252.332 645.083 252.159L644.739 252.384L644.335 252.877C644.458 252.81 644.582 252.743 644.702 252.677ZM643.953 253.695C644.095 253.503 644.236 253.31 644.377 253.118C644.235 253.197 644.09 253.275 643.946 253.354L643.497 253.901C643.65 253.832 643.803 253.764 643.953 253.695ZM643.201 254.71C643.36 254.497 643.518 254.284 643.676 254.071C643.507 254.148 643.336 254.225 643.165 254.302L642.669 254.902C642.847 254.838 643.026 254.774 643.201 254.71ZM642.449 255.72C642.618 255.493 642.787 255.266 642.956 255.039L642.386 255.245C642.208 255.459 642.03 255.672 641.852 255.886L642.449 255.72ZM385.638 307.958C384.233 307.011 382.821 306.043 381.405 305.061C379.662 305.232 377.917 305.402 376.168 305.568C377.612 306.466 379.052 307.352 380.484 308.208C382.205 308.13 383.924 308.047 385.638 307.958ZM390.152 310.952C388.763 310.052 387.364 309.116 385.964 308.174C384.26 308.264 382.553 308.347 380.844 308.426C382.298 309.291 383.743 310.117 385.188 310.947C386.846 310.955 388.501 310.958 390.152 310.952ZM394.699 313.832C393.311 312.967 391.918 312.087 390.52 311.185C388.882 311.192 387.239 311.19 385.594 311.183C387.03 312.004 388.459 312.799 389.886 313.584C391.494 313.677 393.099 313.759 394.699 313.832ZM399.197 316.574C397.835 315.759 396.47 314.937 395.098 314.085C393.522 314.014 391.943 313.933 390.36 313.844C391.747 314.606 393.13 315.356 394.506 316.081C396.074 316.255 397.639 316.423 399.197 316.574ZM403.697 319.214C402.356 318.444 401.01 317.658 399.659 316.852C398.143 316.706 396.626 316.556 395.102 316.389C396.452 317.099 397.8 317.804 399.139 318.478C400.662 318.733 402.183 318.984 403.697 319.214ZM408.164 321.732C406.878 321.025 405.584 320.293 404.287 319.551C402.817 319.331 401.335 319.08 399.856 318.836C401.195 319.501 402.527 320.142 403.858 320.78C405.295 321.103 406.736 321.436 408.164 321.732ZM412.446 324.042C411.261 323.42 410.068 322.768 408.875 322.115C407.529 321.84 406.179 321.549 404.826 321.25C406.128 321.866 407.421 322.452 408.715 323.038C409.963 323.39 411.204 323.713 412.446 324.042ZM416.647 326.185C415.587 325.654 414.526 325.116 413.462 324.567C412.336 324.274 411.206 323.968 410.074 323.656C411.24 324.177 412.4 324.68 413.559 325.175C414.593 325.528 415.618 325.85 416.647 326.185ZM419.815 327.746C419.218 327.457 418.625 327.181 418.026 326.886C417.433 326.696 416.838 326.504 416.243 326.309C417.438 326.803 418.628 327.277 419.815 327.746ZM647.801 248.829L647.902 248.671L647.873 248.7L647.746 248.877L647.801 248.829ZM647.072 249.952C647.156 249.823 647.24 249.695 647.324 249.566C647.257 249.625 647.191 249.685 647.124 249.744C647.035 249.867 646.947 249.991 646.858 250.114C646.929 250.06 647.002 250.006 647.072 249.952ZM646.355 251.049L646.691 250.535C646.589 250.613 646.485 250.692 646.382 250.769L646.02 251.268L646.355 251.049ZM645.623 252.164L646.037 251.536L645.634 251.799L645.192 252.404C645.335 252.324 645.479 252.244 645.623 252.164ZM644.896 253.262L645.345 252.584C645.182 252.674 645.025 252.763 644.862 252.853L644.39 253.494C644.558 253.418 644.726 253.34 644.896 253.262ZM644.171 254.354C644.333 254.111 644.494 253.868 644.655 253.625C644.473 253.709 644.293 253.792 644.11 253.875C643.94 254.105 643.771 254.335 643.6 254.564L644.171 254.354ZM643.439 255.444C643.611 255.188 643.784 254.931 643.956 254.675L643.354 254.894C643.175 255.136 642.995 255.377 642.815 255.619L643.439 255.444ZM391.195 307.647C389.813 306.616 388.423 305.563 387.029 304.493C385.278 304.673 383.524 304.85 381.767 305.024C383.194 306.013 384.617 306.985 386.033 307.936C387.758 307.846 389.478 307.749 391.195 307.647ZM395.628 310.902C394.254 309.912 392.873 308.895 391.488 307.864C389.781 307.965 388.072 308.062 386.359 308.153C387.775 309.102 389.189 310.043 390.594 310.951C392.276 310.943 393.953 310.925 395.628 310.902ZM400.059 314.049C398.697 313.103 397.325 312.121 395.95 311.131C394.289 311.155 392.627 311.174 390.959 311.183C392.37 312.092 393.777 312.985 395.176 313.855C396.808 313.929 398.436 313.995 400.059 314.049ZM404.472 317.047C403.125 316.146 401.775 315.233 400.417 314.294C398.807 314.241 397.193 314.179 395.575 314.107C396.969 314.969 398.354 315.798 399.737 316.623C401.32 316.775 402.899 316.918 404.472 317.047ZM408.905 319.95C407.566 319.088 406.224 318.219 404.874 317.32C403.321 317.193 401.76 317.048 400.199 316.9C401.593 317.729 402.981 318.532 404.365 319.322C405.886 319.55 407.394 319.747 408.905 319.95ZM413.309 322.723C412 321.916 410.688 321.094 409.369 320.25C407.899 320.055 406.434 319.878 404.956 319.659C406.29 320.418 407.62 321.159 408.945 321.882C410.405 322.181 411.857 322.451 413.309 322.723ZM417.707 325.382C416.44 324.634 415.167 323.866 413.891 323.081C412.482 322.821 411.071 322.551 409.655 322.266C410.951 322.97 412.245 323.666 413.531 324.334C414.928 324.698 416.32 325.047 417.707 325.382ZM421.99 327.864C420.807 327.196 419.617 326.502 418.424 325.801C417.145 325.496 415.869 325.197 414.582 324.868C415.755 325.473 416.929 326.078 418.094 326.653C419.396 327.068 420.697 327.477 421.99 327.864ZM426.006 330.083C424.995 329.537 423.977 328.968 422.959 328.4C421.877 328.081 420.797 327.768 419.709 327.43C420.776 327.944 421.843 328.458 422.904 328.953C423.943 329.346 424.974 329.71 426.006 330.083ZM429.393 331.862C428.759 331.533 428.125 331.205 427.49 330.871C426.911 330.667 426.33 330.457 425.749 330.246C426.967 330.796 428.185 331.345 429.393 331.862ZM649.323 246.908L649.403 246.772H649.402L649.302 246.93L649.323 246.908ZM648.64 248.084L648.851 247.721C648.794 247.778 648.74 247.834 648.684 247.891L648.451 248.252L648.64 248.084ZM647.929 249.298C648.04 249.11 648.152 248.922 648.262 248.734L647.976 248.988C647.858 249.17 647.741 249.352 647.623 249.535C647.727 249.456 647.828 249.377 647.929 249.298ZM647.238 250.472L647.612 249.838C647.491 249.931 647.366 250.024 647.242 250.118C647.109 250.322 646.975 250.527 646.842 250.731C646.974 250.644 647.108 250.558 647.238 250.472ZM646.54 251.653L646.971 250.925C646.823 251.022 646.673 251.12 646.523 251.218C646.37 251.451 646.219 251.684 646.066 251.917L646.54 251.653ZM645.837 252.829C645.992 252.57 646.148 252.31 646.302 252.051L645.789 252.337C645.626 252.584 645.461 252.83 645.298 253.077L645.837 252.829ZM645.139 253.999C645.303 253.725 645.466 253.451 645.629 253.178L645.058 253.44C644.886 253.7 644.715 253.959 644.542 254.218L645.139 253.999ZM644.431 255.166C644.604 254.88 644.778 254.594 644.951 254.308L644.329 254.537C644.149 254.808 643.966 255.077 643.785 255.347L644.431 255.166ZM396.744 307.301C395.388 306.189 394.024 305.055 392.657 303.902C390.897 304.091 389.133 304.276 387.367 304.459C388.769 305.533 390.168 306.591 391.56 307.625C393.291 307.522 395.02 307.415 396.744 307.301ZM401.079 310.801C399.729 309.73 398.372 308.631 397.01 307.517C395.294 307.631 393.575 307.739 391.852 307.842C393.248 308.878 394.64 309.901 396.024 310.897C397.713 310.872 399.398 310.841 401.079 310.801ZM405.425 314.193C404.08 313.162 402.728 312.103 401.37 311.029C399.7 311.069 398.025 311.1 396.347 311.125C397.734 312.121 399.119 313.109 400.495 314.062C402.143 314.116 403.786 314.158 405.425 314.193ZM409.76 317.448C408.422 316.459 407.083 315.464 405.733 314.433C404.111 314.4 402.485 314.358 400.854 314.307C402.225 315.254 403.592 316.183 404.953 317.09C406.56 317.22 408.163 317.341 409.76 317.448ZM414.133 320.619C412.795 319.665 411.453 318.7 410.103 317.705C408.523 317.6 406.942 317.489 405.353 317.362C406.723 318.271 408.084 319.148 409.443 320.019C411.009 320.226 412.577 320.438 414.133 320.619ZM418.471 323.65C417.166 322.755 415.858 321.846 414.542 320.913C413.005 320.735 411.453 320.521 409.907 320.319C411.264 321.184 412.614 322.023 413.96 322.849C415.468 323.127 416.973 323.399 418.471 323.65ZM422.854 326.593C421.553 325.738 420.246 324.863 418.934 323.967C417.475 323.726 416.011 323.475 414.542 323.207C415.863 324.013 417.178 324.798 418.488 325.566C419.945 325.913 421.408 326.276 422.854 326.593ZM427.15 329.361C425.912 328.581 424.668 327.779 423.42 326.963C422.023 326.66 420.611 326.315 419.204 325.985C420.483 326.729 421.756 327.457 423.022 328.165C424.401 328.571 425.782 328.986 427.15 329.361ZM431.277 331.911C430.139 331.225 428.993 330.511 427.845 329.792C426.566 329.446 425.278 329.072 423.99 328.699C425.183 329.36 426.374 330.012 427.557 330.64C428.802 331.079 430.041 331.5 431.277 331.911ZM435.3 334.278C434.288 333.696 433.269 333.09 432.249 332.483C431.212 332.144 430.181 331.821 429.138 331.463C430.076 331.954 431.016 332.449 431.948 332.917C433.068 333.38 434.188 333.841 435.3 334.278ZM438.396 336.014C437.827 335.699 437.259 335.384 436.689 335.065C436.166 334.864 435.647 334.674 435.121 334.468C436.215 334.993 437.308 335.511 438.396 336.014ZM650.141 246.078C650.204 245.958 650.266 245.837 650.328 245.717L650.195 245.869C650.124 245.992 650.054 246.115 649.983 246.238L650.141 246.078ZM649.472 247.345L649.763 246.795L649.51 247.051L649.197 247.589L649.472 247.345ZM648.801 248.618C648.922 248.391 649.04 248.163 649.161 247.936L648.82 248.239C648.69 248.461 648.561 248.684 648.431 248.907C648.553 248.81 648.676 248.714 648.801 248.618ZM648.121 249.895C648.257 249.639 648.396 249.382 648.532 249.126C648.388 249.237 648.25 249.347 648.106 249.458C647.964 249.7 647.821 249.942 647.679 250.184C647.827 250.088 647.976 249.991 648.121 249.895ZM647.452 251.145C647.599 250.871 647.745 250.597 647.891 250.324C647.733 250.428 647.573 250.533 647.411 250.637C647.256 250.9 647.102 251.164 646.946 251.427L647.452 251.145ZM646.778 252.396C646.936 252.105 647.093 251.814 647.25 251.522L646.71 251.823C646.545 252.102 646.378 252.379 646.212 252.657L646.778 252.396ZM646.101 253.645L646.595 252.733L646.004 253.005C645.832 253.294 645.66 253.582 645.487 253.871L646.101 253.645ZM645.425 254.887C645.597 254.574 645.767 254.26 645.938 253.946L645.302 254.179C645.122 254.478 644.94 254.776 644.76 255.074L645.425 254.887ZM402.275 306.914C400.95 305.731 399.617 304.519 398.279 303.289C396.515 303.485 394.747 303.678 392.976 303.868C394.351 305.024 395.721 306.163 397.085 307.278C398.819 307.162 400.549 307.04 402.275 306.914ZM406.532 310.646C405.201 309.494 403.865 308.326 402.522 307.13C400.802 307.257 399.078 307.378 397.351 307.493C398.722 308.613 400.089 309.716 401.448 310.794C403.147 310.753 404.841 310.702 406.532 310.646ZM410.802 314.276C409.469 313.159 408.134 312.032 406.788 310.871C405.109 310.927 403.427 310.979 401.739 311.021C403.103 312.1 404.463 313.168 405.814 314.201C407.48 314.235 409.144 314.262 410.802 314.276ZM415.039 317.765C413.724 316.699 412.407 315.619 411.081 314.512C409.437 314.498 407.787 314.473 406.134 314.441C407.49 315.474 408.838 316.482 410.182 317.473C411.805 317.581 413.425 317.681 415.039 317.765ZM419.293 321.155C417.985 320.131 416.671 319.088 415.352 318.02C413.749 317.938 412.137 317.835 410.524 317.73C411.896 318.739 413.259 319.716 414.62 320.682C416.186 320.861 417.737 321.002 419.293 321.155ZM423.564 324.441C422.263 323.459 420.956 322.454 419.643 321.429C418.105 321.279 416.576 321.15 415.028 320.975C416.36 321.917 417.684 322.831 419.004 323.733C420.53 323.984 422.049 324.219 423.564 324.441ZM427.827 327.602C426.55 326.675 425.266 325.721 423.977 324.752C422.48 324.534 420.975 324.296 419.468 324.05C420.813 324.964 422.152 325.855 423.486 326.727C424.941 327.041 426.383 327.318 427.827 327.602ZM432.091 330.641C430.838 329.767 429.576 328.864 428.311 327.948C426.89 327.672 425.468 327.392 424.037 327.087C425.333 327.93 426.625 328.754 427.91 329.558C429.309 329.935 430.702 330.295 432.091 330.641ZM436.29 333.511C435.094 332.712 433.89 331.882 432.683 331.045C431.33 330.712 429.967 330.352 428.604 329.989C429.847 330.761 431.085 331.517 432.318 332.251C433.647 332.685 434.972 333.109 436.29 333.511ZM440.465 336.228C439.314 335.493 438.157 334.739 436.997 333.972C435.765 333.602 434.529 333.221 433.288 332.823C434.448 333.507 435.604 334.182 436.754 334.832C437.995 335.309 439.235 335.782 440.465 336.228ZM444.364 338.651C443.363 338.041 442.36 337.427 441.352 336.792C440.312 336.422 439.269 336.041 438.222 335.649C439.255 336.224 440.288 336.797 441.314 337.346C442.336 337.797 443.349 338.222 444.364 338.651ZM447.383 340.455C446.826 340.127 446.272 339.815 445.712 339.48C445.154 339.249 444.592 339.006 444.032 338.768C445.153 339.345 446.27 339.907 447.383 340.455ZM22.8315 120.875C23.5306 119.409 24.2305 117.938 24.9324 116.464C26.2695 113.654 27.6129 110.833 28.9638 108.01C24.7277 115.417 20.6255 122.954 16.5943 130.4C18.6415 127.207 20.7192 124.025 22.8315 120.875ZM14.6349 137.825C17.1349 132.772 19.6276 127.589 22.1326 122.34C19.7295 125.95 17.3717 129.597 15.051 133.251C12.4211 138.112 9.8181 142.922 7.22469 147.617C9.6489 144.337 12.1167 141.063 14.6349 137.825ZM651.574 243.929L651.753 243.548L651.654 243.675L651.445 244.079L651.574 243.929ZM650.946 245.26L651.208 244.706L650.983 244.965L650.699 245.511L650.946 245.26ZM650.303 246.608L650.638 245.906L650.331 246.217C650.211 246.446 650.089 246.675 649.969 246.905C650.081 246.806 650.193 246.707 650.303 246.608ZM649.667 247.942C649.793 247.679 649.917 247.416 650.043 247.153C649.915 247.267 649.786 247.381 649.657 247.496C649.521 247.753 649.386 248.011 649.249 248.268L649.667 247.942ZM649.015 249.293C649.155 249.002 649.297 248.711 649.437 248.419C649.285 248.538 649.133 248.656 648.982 248.774C648.833 249.055 648.684 249.336 648.534 249.616C648.693 249.509 648.852 249.401 649.015 249.293ZM648.364 250.636C648.515 250.328 648.663 250.019 648.812 249.711C648.639 249.826 648.472 249.941 648.299 250.057L647.829 250.934C648.008 250.835 648.188 250.736 648.364 250.636ZM647.716 251.965C647.874 251.643 648.032 251.322 648.189 250.999C648.003 251.103 647.815 251.208 647.627 251.312C647.462 251.619 647.298 251.927 647.132 252.234C647.328 252.144 647.524 252.054 647.716 251.965ZM647.066 253.29C647.23 252.957 647.393 252.625 647.557 252.291C647.356 252.384 647.152 252.477 646.95 252.57C646.777 252.888 646.605 253.205 646.433 253.523C646.645 253.445 646.857 253.367 647.066 253.29ZM646.415 254.61C646.585 254.268 646.753 253.926 646.922 253.584C646.706 253.663 646.488 253.743 646.269 253.824C646.093 254.148 645.918 254.474 645.74 254.799L646.415 254.61ZM407.838 306.489C406.533 305.232 405.221 303.953 403.903 302.652C402.134 302.856 400.362 303.057 398.585 303.255C399.929 304.488 401.268 305.702 402.599 306.89C404.349 306.762 406.096 306.629 407.838 306.489ZM411.993 310.438C410.689 309.217 409.378 307.971 408.061 306.705C406.327 306.845 404.589 306.978 402.846 307.106C404.193 308.305 405.533 309.481 406.868 310.634C408.58 310.576 410.289 310.511 411.993 310.438ZM416.154 314.285C414.853 313.102 413.545 311.89 412.231 310.662C410.533 310.736 408.831 310.801 407.124 310.859C408.477 312.026 409.821 313.156 411.162 314.278C412.831 314.291 414.494 314.292 416.154 314.285ZM420.294 318C419.007 316.865 417.711 315.698 416.411 314.518C414.758 314.525 413.102 314.525 411.44 314.513C412.777 315.63 414.107 316.716 415.433 317.789C417.059 317.872 418.678 317.94 420.294 318ZM424.489 321.648C423.191 320.541 421.884 319.399 420.574 318.245C418.968 318.186 417.361 318.125 415.746 318.043C417.077 319.118 418.401 320.165 419.72 321.195C421.311 321.351 422.908 321.52 424.489 321.648ZM428.636 325.133C427.368 324.088 426.092 323.01 424.812 321.92C423.241 321.794 421.652 321.622 420.07 321.47C421.403 322.508 422.73 323.523 424.05 324.517C425.585 324.739 427.112 324.94 428.636 325.133ZM432.843 328.535C431.563 327.518 430.278 326.481 428.985 325.419C427.481 325.231 425.978 325.044 424.464 324.827C425.775 325.81 427.081 326.773 428.38 327.713C429.874 328.003 431.361 328.277 432.843 328.535ZM437.04 331.804C435.776 330.837 434.508 329.859 433.231 328.848C431.78 328.599 430.326 328.34 428.863 328.06C430.165 328.998 431.462 329.918 432.752 330.812C434.189 331.165 435.615 331.485 437.04 331.804ZM441.256 334.96C440.008 334.045 438.756 333.116 437.497 332.157C436.115 331.851 434.735 331.553 433.343 331.216C434.589 332.075 435.832 332.921 437.066 333.74C438.467 334.16 439.866 334.576 441.256 334.96ZM445.415 337.945C444.209 337.098 442.999 336.237 441.782 335.349C440.452 334.986 439.115 334.598 437.776 334.201C438.994 335.004 440.211 335.797 441.418 336.56C442.755 337.036 444.089 337.506 445.415 337.945ZM449.444 340.714C448.322 339.96 447.197 339.194 446.065 338.405C444.838 338.004 443.605 337.579 442.368 337.147C443.512 337.863 444.655 338.575 445.789 339.255C447.013 339.761 448.23 340.242 449.444 340.714ZM453.306 343.252C452.324 342.622 451.339 341.981 450.349 341.323C449.323 340.93 448.295 340.532 447.261 340.116C448.242 340.694 449.226 341.279 450.2 341.832C451.241 342.324 452.273 342.787 453.306 343.252ZM456.123 345.044C455.656 344.755 455.187 344.453 454.717 344.154C454.139 343.899 453.554 343.621 452.973 343.358C454.025 343.929 455.077 344.497 456.123 345.044ZM37.6322 92.9929C39.4573 88.6683 41.2932 84.3426 43.1493 80.0448C39.2566 87.409 35.495 95.004 31.8075 102.635C33.7181 99.3787 35.6572 96.1578 37.6322 92.9929ZM30.5634 109.762C32.0092 106.35 33.4553 102.914 34.9064 99.4658C35.6198 97.7706 36.334 96.0728 37.0496 94.375C34.833 97.9592 32.6598 101.611 30.5218 105.303C28.7152 109.061 26.9245 112.823 25.1435 116.565L23.7176 119.56C25.9565 116.246 28.2361 112.972 30.5634 109.762ZM22.7756 127.735C25.2518 122.192 27.7041 116.498 30.1548 110.726C27.7341 114.088 25.3639 117.518 23.0371 120.987C20.4651 126.382 17.9078 131.715 15.3443 136.916C17.7715 133.813 20.2465 130.744 22.7756 127.735ZM13.566 147.215C16.5783 141.273 19.5202 134.999 22.4279 128.513C19.8429 131.606 17.3141 134.76 14.8345 137.949C11.7951 144.09 8.7458 150.04 5.65057 155.681C8.23439 152.826 10.8708 149.995 13.566 147.215ZM652.971 241.584L653.126 241.22L653.053 241.327L652.875 241.71L652.971 241.584ZM652.363 243.015C652.445 242.823 652.526 242.632 652.607 242.441L652.415 242.691L652.142 243.271L652.363 243.015ZM651.748 244.445C651.851 244.205 651.955 243.965 652.058 243.725L651.773 244.056C651.663 244.288 651.553 244.521 651.443 244.754C651.545 244.651 651.648 244.548 651.748 244.445ZM651.135 245.87C651.255 245.592 651.373 245.314 651.493 245.037C651.376 245.156 651.258 245.276 651.14 245.396C651.011 245.667 650.881 245.938 650.752 246.209C650.881 246.096 651.009 245.982 651.135 245.87ZM650.526 247.271C650.655 246.974 650.786 246.677 650.915 246.379C650.777 246.504 650.633 246.629 650.492 246.755C650.354 247.043 650.217 247.332 650.079 247.62L650.526 247.271ZM649.905 248.692L650.329 247.723L649.852 248.095C649.702 248.408 649.55 248.721 649.399 249.034C649.568 248.92 649.736 248.806 649.905 248.692ZM649.281 250.117L649.731 249.091C649.552 249.211 649.375 249.331 649.197 249.451C649.039 249.779 648.881 250.107 648.722 250.434C648.908 250.329 649.093 250.222 649.281 250.117ZM648.656 251.526C648.812 251.175 648.968 250.824 649.123 250.472C648.929 250.582 648.739 250.692 648.544 250.801C648.38 251.137 648.217 251.473 648.053 251.809C648.255 251.715 648.454 251.621 648.656 251.526ZM648.035 252.93C648.196 252.569 648.355 252.207 648.515 251.846C648.306 251.943 648.101 252.039 647.892 252.137C647.723 252.482 647.553 252.828 647.383 253.173C647.602 253.092 647.816 253.011 648.035 252.93ZM647.405 254.33C647.571 253.96 647.739 253.591 647.905 253.22L647.239 253.467C647.066 253.819 646.893 254.173 646.719 254.525L647.405 254.33ZM413.375 306.025C412.103 304.703 410.824 303.357 409.541 301.991C407.762 302.203 405.979 302.413 404.192 302.618C405.515 303.924 406.831 305.203 408.141 306.464C409.89 306.324 411.634 306.177 413.375 306.025ZM417.42 310.178C416.149 308.893 414.87 307.575 413.586 306.242C411.849 306.394 410.108 306.54 408.364 306.681C409.686 307.951 411.002 309.2 412.312 310.425C414.02 310.351 415.722 310.268 417.42 310.178ZM421.499 314.234C420.22 312.977 418.935 311.704 417.644 310.4C415.95 310.49 414.253 310.575 412.551 310.649C413.871 311.882 415.186 313.096 416.493 314.284C418.166 314.276 419.836 314.261 421.499 314.234ZM425.562 318.163C424.29 316.949 423.015 315.724 421.731 314.465C420.076 314.493 418.414 314.508 416.75 314.516C418.057 315.702 419.36 316.871 420.655 318.012C422.294 318.071 423.933 318.127 425.562 318.163ZM429.64 321.991C428.37 320.817 427.097 319.627 425.816 318.406C424.195 318.372 422.565 318.313 420.934 318.256C422.259 319.42 423.579 320.569 424.89 321.686C426.484 321.814 428.057 321.89 429.64 321.991ZM433.759 325.74C432.485 324.599 431.204 323.438 429.917 322.249C428.349 322.151 426.791 322.081 425.212 321.957C426.499 323.051 427.783 324.134 429.057 325.183C430.628 325.38 432.199 325.575 433.759 325.74ZM437.899 329.384C436.631 328.288 435.356 327.168 434.075 326.023C432.529 325.86 430.97 325.663 429.412 325.47C430.714 326.538 432.011 327.59 433.3 328.612C434.836 328.876 436.376 329.155 437.899 329.384ZM441.977 332.85C440.738 331.817 439.492 330.758 438.24 329.678C436.735 329.453 435.215 329.185 433.699 328.927C434.995 329.949 436.283 330.946 437.566 331.923C439.042 332.25 440.513 332.559 441.977 332.85ZM446.119 336.241C444.876 335.244 443.626 334.22 442.37 333.176C440.926 332.892 439.477 332.595 438.022 332.276C439.305 333.249 440.579 334.188 441.849 335.117C443.278 335.507 444.703 335.889 446.119 336.241ZM450.221 339.469C449.013 338.538 447.796 337.58 446.576 336.604C445.182 336.261 443.779 335.885 442.374 335.506C443.633 336.419 444.884 337.302 446.13 338.172C447.498 338.62 448.865 339.061 450.221 339.469ZM454.236 342.501C453.083 341.649 451.921 340.768 450.755 339.875C449.437 339.482 448.109 339.06 446.779 338.631C447.999 339.477 449.211 340.292 450.42 341.096C451.699 341.585 452.969 342.049 454.236 342.501ZM458.223 345.383C457.132 344.612 456.03 343.81 454.928 343.002C453.729 342.58 452.531 342.158 451.322 341.703C452.483 342.468 453.634 343.199 454.783 343.924C455.936 344.432 457.08 344.908 458.223 345.383ZM461.986 347.974C461.057 347.349 460.121 346.697 459.185 346.045C458.121 345.612 457.048 345.148 455.975 344.686C457.046 345.352 458.107 345.984 459.168 346.616C460.112 347.088 461.048 347.527 461.986 347.974ZM465.066 349.999C464.52 349.644 463.971 349.285 463.423 348.925C462.842 348.654 462.253 348.36 461.669 348.08C462.807 348.738 463.94 349.382 465.066 349.999ZM51.1235 65.2267C52.7935 60.8307 54.4759 56.4613 56.1806 52.1457C52.5483 59.4856 49.0486 67.1417 45.6288 74.9332C47.4291 71.635 49.2584 68.393 51.1235 65.2267ZM44.844 81.9577L44.8512 81.9384C46.7681 76.8004 48.6888 71.6515 50.6266 66.5356C48.5487 70.1019 46.5133 73.7591 44.5139 77.4827C42.4549 82.2133 40.4223 86.9858 38.4047 91.7613C40.509 88.421 42.6533 85.1456 44.844 81.9577ZM38.1498 99.7773C40.2765 94.1927 42.3895 88.5359 44.5062 82.8633C42.2364 86.1919 40.0162 89.6146 37.838 93.1043C36.9298 95.2564 36.0243 97.4086 35.1208 99.5565C33.8016 102.692 32.4858 105.819 31.1707 108.927C33.4488 105.806 35.7735 102.749 38.1498 99.7773ZM30.7039 118.73C33.1302 112.795 35.5129 106.689 37.8783 100.489C35.4564 103.538 33.0882 106.676 30.767 109.878C28.2926 115.716 25.8169 121.479 23.318 127.092C25.729 124.241 28.1888 121.446 30.7039 118.73ZM21.8145 139.071C24.7758 132.813 27.6412 126.197 30.4492 119.35C27.9037 122.115 25.4135 124.96 22.974 127.862C20.0639 134.376 17.1196 140.68 14.1072 146.66C16.623 144.078 19.1906 141.542 21.8145 139.071ZM654.312 239.075L654.443 238.733L654.398 238.806L654.243 239.178L654.312 239.075ZM653.732 240.587L653.953 240.015L653.791 240.251C653.708 240.447 653.624 240.642 653.541 240.838L653.732 240.587ZM653.143 242.105L653.428 241.372L653.174 241.703L652.864 242.431L653.143 242.105ZM652.563 243.602C652.672 243.322 652.78 243.041 652.889 242.76L652.563 243.14C652.444 243.419 652.323 243.697 652.204 243.975C652.324 243.851 652.442 243.726 652.563 243.602ZM651.973 245.104C652.095 244.793 652.219 244.482 652.341 244.17C652.208 244.306 652.077 244.443 651.944 244.579L651.552 245.489C651.692 245.361 651.831 245.232 651.973 245.104ZM651.385 246.601C651.517 246.268 651.647 245.934 651.778 245.601C651.626 245.738 651.479 245.875 651.326 246.013L650.912 246.97C651.07 246.847 651.228 246.724 651.385 246.601ZM650.793 248.094C650.934 247.74 651.076 247.385 651.216 247.03C651.049 247.161 650.882 247.291 650.714 247.422C650.565 247.764 650.415 248.107 650.266 248.45L650.793 248.094ZM650.193 249.598L650.64 248.479L650.092 248.849C649.935 249.207 649.779 249.565 649.622 249.923L650.193 249.598ZM649.599 251.085C649.751 250.705 649.904 250.324 650.056 249.942L649.464 250.279C649.302 250.645 649.14 251.01 648.978 251.376L649.599 251.085ZM648.997 252.57C649.155 252.18 649.314 251.789 649.472 251.398L648.837 251.695C648.671 252.069 648.507 252.443 648.34 252.816L648.997 252.57ZM648.399 254.049C648.561 253.651 648.721 253.252 648.882 252.854L648.212 253.105C648.041 253.486 647.869 253.867 647.698 254.248L648.399 254.049ZM418.926 305.525C417.679 304.143 416.425 302.736 415.166 301.309C413.388 301.528 411.607 301.745 409.822 301.958C411.109 303.327 412.391 304.675 413.667 306C415.424 305.847 417.177 305.689 418.926 305.525ZM422.883 309.865C421.635 308.515 420.38 307.137 419.119 305.741C417.377 305.905 415.629 306.064 413.878 306.217C415.166 307.553 416.45 308.873 417.726 310.162C419.449 310.07 421.169 309.972 422.883 309.865ZM426.852 314.112C425.604 312.796 424.348 311.449 423.088 310.087C421.38 310.194 419.666 310.292 417.949 310.384C419.244 311.69 420.532 312.971 421.814 314.229C423.499 314.201 425.177 314.159 426.852 314.112ZM430.808 318.234C429.569 316.963 428.321 315.657 427.069 314.339C425.398 314.388 423.724 314.429 422.044 314.458C423.336 315.725 424.618 316.954 425.898 318.174C427.541 318.208 429.175 318.222 430.808 318.234ZM434.829 322.31C433.574 321.06 432.309 319.771 431.04 318.47C429.414 318.46 427.788 318.451 426.151 318.417C427.44 319.642 428.719 320.835 429.994 322.013C431.606 322.114 433.228 322.237 434.829 322.31ZM438.803 326.208C437.569 325.016 436.328 323.797 435.082 322.558C433.488 322.486 431.876 322.369 430.272 322.271C431.571 323.468 432.862 324.637 434.149 325.787C435.709 325.95 437.254 326.075 438.803 326.208ZM442.845 330.05C441.594 328.88 440.339 327.695 439.075 326.475C437.54 326.345 436.01 326.229 434.464 326.069C435.752 327.218 437.033 328.34 438.309 329.44C439.829 329.667 441.337 329.857 442.845 330.05ZM446.901 333.779C445.656 332.654 444.407 331.512 443.149 330.338C441.653 330.148 440.157 329.955 438.649 329.733C439.919 330.826 441.182 331.895 442.438 332.94C443.931 333.233 445.421 333.522 446.901 333.779ZM450.942 337.366C449.711 336.294 448.475 335.201 447.231 334.08C445.771 333.83 444.302 333.551 442.831 333.265C444.109 334.324 445.38 335.36 446.644 336.371C448.084 336.725 449.515 337.05 450.942 337.366ZM454.993 340.831C453.777 339.811 452.556 338.771 451.327 337.704C449.92 337.396 448.506 337.068 447.087 336.723C448.338 337.718 449.583 338.693 450.821 339.642C452.219 340.058 453.61 340.455 454.993 340.831ZM458.998 344.122C457.817 343.172 456.632 342.202 455.439 341.206C454.084 340.843 452.719 340.447 451.351 340.044C452.574 340.976 453.79 341.888 454.999 342.775C456.339 343.245 457.671 343.692 458.998 344.122ZM463.016 347.289C461.856 346.395 460.69 345.481 459.518 344.542C458.247 344.135 456.972 343.719 455.689 343.274C456.885 344.144 458.075 344.996 459.259 345.822C460.518 346.335 461.768 346.815 463.016 347.289ZM466.939 350.246C465.858 349.45 464.771 348.636 463.678 347.8C462.495 347.357 461.303 346.886 460.11 346.408C461.244 347.191 462.373 347.959 463.496 348.703C464.651 349.241 465.796 349.745 466.939 350.246ZM470.641 352.913C469.707 352.256 468.768 351.585 467.825 350.897C466.805 350.458 465.777 349.99 464.749 349.522C465.72 350.155 466.689 350.778 467.653 351.381C468.653 351.908 469.649 352.416 470.641 352.913ZM473.407 354.838C472.916 354.506 472.421 354.157 471.927 353.811C471.34 353.524 470.75 353.229 470.16 352.931C471.249 353.588 472.329 354.218 473.407 354.838ZM63.6026 37.5333C65.1432 33.075 66.6982 28.6655 68.2779 24.3325C64.857 31.6405 61.5751 39.3425 58.3783 47.2657C60.0865 43.9392 61.8263 40.6906 63.6026 37.5333ZM57.9342 54.282C59.6696 49.0754 61.4131 43.8934 63.175 38.7727C61.2082 42.3105 59.2861 45.9627 57.4006 49.703C55.5162 54.4248 53.6605 59.2184 51.8218 64.0468C53.816 60.6965 55.8517 57.4347 57.9342 54.282ZM52.0243 72.0797C52.9305 69.3568 53.8354 66.6286 54.7398 63.9007C55.7089 60.9764 56.6781 58.0527 57.6499 55.1359C55.4963 58.4247 53.3937 61.8322 51.3335 65.33C49.3371 70.588 47.359 75.8833 45.3857 81.1711C47.5511 78.0458 49.7617 75.008 52.0243 72.0797ZM45.658 90.9013C47.7273 84.9236 49.7677 78.8551 51.799 72.757C49.4986 75.7555 47.252 78.8667 45.0517 82.0673C42.9111 87.8054 40.7752 93.5296 38.6251 99.1825C40.9189 96.3332 43.2617 93.5668 45.658 90.9013ZM38.4872 110.771C40.8656 104.504 43.1812 98.0427 45.4615 91.468C43.0391 94.1797 40.6723 96.9963 38.3539 99.8943C35.9792 106.129 33.5867 112.274 31.1518 118.247C33.546 115.677 35.9891 113.178 38.4872 110.771ZM29.8012 131.936C32.7396 125.396 35.5568 118.471 38.2915 111.287C35.7751 113.725 33.3138 116.256 30.9029 118.859C28.0966 125.724 25.2322 132.357 22.2738 138.641C23.4931 137.5 24.7239 136.373 25.9672 135.262C27.2306 134.134 28.5109 133.027 29.8012 131.936ZM17.4806 155.471C21.7726 148.615 25.7769 140.847 29.5767 132.432C28.4157 133.42 27.2622 134.418 26.1225 135.436C24.7346 136.675 23.3627 137.935 22.0054 139.212C18.1547 147.348 14.142 154.883 9.88578 161.555C12.3678 159.482 14.9004 157.452 17.4806 155.471ZM655.601 236.393L655.705 236.092L655.688 236.123L655.561 236.459L655.601 236.393ZM655.044 237.997L655.24 237.436L655.104 237.658L654.885 238.231L655.044 237.997ZM654.485 239.597L654.745 238.852L654.521 239.183C654.426 239.429 654.332 239.676 654.237 239.923L654.485 239.597ZM653.927 241.187L654.236 240.309L653.938 240.701C653.826 240.992 653.713 241.282 653.6 241.571L653.927 241.187ZM653.37 242.761L653.71 241.802L653.346 242.226C653.225 242.54 653.104 242.853 652.982 243.166L653.37 242.761ZM652.813 244.337C652.936 243.99 653.058 243.642 653.182 243.295C653.041 243.44 652.902 243.586 652.763 243.731C652.63 244.07 652.497 244.408 652.364 244.747C652.514 244.61 652.663 244.473 652.813 244.337ZM652.241 245.933C652.375 245.558 652.51 245.184 652.643 244.81C652.484 244.954 652.326 245.099 652.169 245.243L651.746 246.319C651.912 246.19 652.078 246.061 652.241 245.933ZM651.679 247.497C651.817 247.113 651.954 246.73 652.092 246.346C651.923 246.48 651.75 246.614 651.577 246.748C651.431 247.12 651.284 247.492 651.137 247.863C651.318 247.741 651.499 247.619 651.679 247.497ZM651.106 249.08C651.253 248.676 651.4 248.273 651.546 247.868L650.983 248.248C650.828 248.637 650.673 249.025 650.518 249.414C650.715 249.302 650.911 249.191 651.106 249.08ZM650.535 250.647L650.984 249.416L650.381 249.758C650.223 250.152 650.067 250.546 649.908 250.94C650.118 250.842 650.328 250.744 650.535 250.647ZM649.963 252.209C650.117 251.79 650.271 251.372 650.425 250.952L649.782 251.252C649.62 251.655 649.457 252.057 649.294 252.46L649.963 252.209ZM649.388 253.768C649.545 253.342 649.703 252.916 649.86 252.489L649.179 252.743C649.013 253.152 648.849 253.56 648.682 253.968L649.388 253.768ZM424.455 304.987C423.242 303.551 422.022 302.089 420.797 300.604C419.014 300.831 417.226 301.055 415.435 301.275C416.697 302.705 417.954 304.114 419.204 305.499C420.959 305.333 422.709 305.162 424.455 304.987ZM428.322 309.5C427.099 308.086 425.873 306.665 424.637 305.204C422.895 305.379 421.149 305.55 419.398 305.715C420.662 307.114 421.921 308.494 423.173 309.848C424.894 309.74 426.61 309.623 428.322 309.5ZM432.205 313.928C430.979 312.546 429.749 311.149 428.511 309.72C426.804 309.843 425.094 309.961 423.377 310.069C424.642 311.435 425.902 312.784 427.154 314.103C428.842 314.054 430.527 313.997 432.205 313.928ZM436.084 318.245C434.863 316.904 433.638 315.543 432.405 314.154C430.732 314.224 429.053 314.28 427.371 314.33C428.627 315.652 429.879 316.96 431.123 318.235C432.78 318.245 434.438 318.258 436.084 318.245ZM439.972 322.462C438.754 321.16 437.53 319.832 436.299 318.481C434.66 318.495 433.006 318.48 431.356 318.471C432.629 319.775 433.899 321.065 435.16 322.32C436.774 322.392 438.369 322.417 439.972 322.462ZM443.92 326.628C442.689 325.348 441.449 324.039 440.204 322.709C438.609 322.666 437.018 322.637 435.411 322.568C436.663 323.812 437.911 325.042 439.149 326.237C440.742 326.372 442.34 326.524 443.92 326.628ZM447.83 330.633C446.62 329.414 445.402 328.163 444.179 326.894C442.606 326.792 441.012 326.637 439.427 326.504C440.699 327.729 441.963 328.926 443.222 330.101C444.765 330.296 446.3 330.472 447.83 330.633ZM451.799 334.574C450.576 333.38 449.344 332.153 448.106 330.908C446.585 330.749 445.06 330.581 443.526 330.389C444.792 331.568 446.049 332.714 447.301 333.843C448.806 334.101 450.308 334.354 451.799 334.574ZM455.736 338.354C454.535 337.221 453.324 336.056 452.109 334.873C450.625 334.655 449.128 334.399 447.631 334.145C448.895 335.281 450.15 336.386 451.399 337.472C452.853 337.79 454.296 338.076 455.736 338.354ZM459.716 342.037C458.508 340.938 457.294 339.817 456.073 338.67C454.648 338.397 453.221 338.121 451.783 337.81C453.032 338.891 454.272 339.942 455.506 340.973C456.918 341.352 458.319 341.7 459.716 342.037ZM463.67 345.561C462.482 344.521 461.29 343.468 460.089 342.38C458.71 342.051 457.323 341.699 455.93 341.33C457.158 342.351 458.377 343.343 459.591 344.315C460.958 344.752 462.317 345.166 463.67 345.561ZM467.645 348.966C466.465 347.975 465.281 346.971 464.087 345.932C462.767 345.551 461.442 345.156 460.11 344.735C461.331 345.708 462.544 346.651 463.752 347.575C465.057 348.064 466.353 348.521 467.645 348.966ZM471.578 352.195C470.44 351.281 469.3 350.356 468.15 349.396C466.894 348.969 465.63 348.515 464.362 348.047C465.548 348.949 466.726 349.821 467.898 350.676C469.132 351.207 470.357 351.706 471.578 352.195ZM475.417 355.209C474.35 354.39 473.281 353.564 472.202 352.704C471.037 352.244 469.862 351.753 468.685 351.254C469.797 352.058 470.9 352.83 472 353.592C473.146 354.152 474.284 354.688 475.417 355.209ZM479.147 358.004C478.176 357.293 477.204 356.581 476.223 355.836C475.229 355.386 474.234 354.932 473.231 354.452C474.205 355.115 475.168 355.743 476.132 356.374C477.141 356.929 478.148 357.481 479.147 358.004ZM482.023 360.065C481.431 359.649 480.844 359.247 480.249 358.819C479.768 358.572 479.292 358.342 478.809 358.088C479.886 358.766 480.958 359.429 482.023 360.065ZM70.0844 26.724C71.6664 21.4606 73.259 16.2484 74.8735 11.1243C72.9999 14.6215 71.1717 18.2537 69.3829 21.9968C67.6416 26.7145 65.931 31.5291 64.2394 36.4059C66.1428 33.0619 68.089 29.8278 70.0844 26.724ZM64.7883 44.565C66.469 38.8635 68.1475 33.1757 69.8374 27.5454C67.7809 30.7763 65.7757 34.1456 63.8151 37.6296C62.003 42.8751 60.2123 48.1901 58.4298 53.5323C60.5004 50.4263 62.6176 47.4299 64.7883 44.565ZM59.2094 63.38C61.0047 57.3979 62.7795 51.3781 64.551 45.3702L64.6005 45.2023C62.3961 48.1361 60.2466 51.2058 58.1445 54.3873C57.0813 57.5766 56.0211 60.7753 54.9608 63.9737C54.1253 66.4933 53.2901 69.0127 52.4531 71.5282C54.6541 68.7013 56.9044 65.9781 59.2094 63.38ZM53.1227 83.1277C55.1356 76.8136 57.1041 70.3875 59.0482 63.9152C56.7226 66.5553 54.4522 69.32 52.232 72.1921C50.1893 78.3298 48.1374 84.4394 46.0568 90.4594C48.36 87.9142 50.714 85.4642 53.1227 83.1277ZM46.1589 103.833C48.5023 97.2812 50.7642 90.5082 52.971 83.6001C50.5476 85.9656 48.1797 88.446 45.8618 91.0227C43.5776 97.6197 41.2577 104.106 38.8761 110.399C41.2532 108.122 43.6795 105.928 46.1589 103.833ZM37.5856 125.717C40.5265 118.944 43.3188 111.753 46.0035 104.27C43.5114 106.387 41.0734 108.604 38.685 110.905C35.956 118.095 33.1457 125.031 30.2142 131.584C32.6233 129.558 35.0788 127.597 37.5856 125.717ZM25.2408 149.793C29.595 142.784 33.6186 134.816 37.3964 126.155C34.877 128.053 32.4109 130.034 29.9904 132.08C26.2239 140.459 22.2577 148.209 18.0082 155.065C20.3753 153.258 22.7829 151.494 25.2408 149.793ZM656.832 233.553L656.872 233.423L656.822 233.572L656.832 233.553ZM656.3 235.245L656.472 234.696L656.367 234.887L656.172 235.456L656.3 235.245ZM655.774 236.917C655.852 236.67 655.93 236.421 656.008 236.173L655.814 236.493L655.553 237.246L655.774 236.917ZM655.24 238.596L655.523 237.706C655.434 237.838 655.344 237.97 655.254 238.102L654.944 238.989L655.24 238.596ZM654.708 240.269C654.815 239.935 654.92 239.601 655.027 239.267L654.693 239.709C654.579 240.035 654.466 240.363 654.351 240.689L654.708 240.269ZM654.177 241.922C654.292 241.563 654.409 241.204 654.524 240.845L654.133 241.305C654.01 241.655 653.885 242.005 653.762 242.354L654.177 241.922ZM653.643 243.577L654.013 242.429L653.573 242.887C653.441 243.259 653.311 243.631 653.179 244.002L653.643 243.577ZM653.101 245.251C653.233 244.844 653.366 244.436 653.498 244.029L653.011 244.473C652.87 244.87 652.726 245.267 652.585 245.664C652.759 245.526 652.927 245.39 653.101 245.251ZM652.561 246.903C652.697 246.489 652.832 246.074 652.967 245.659C652.792 245.798 652.615 245.938 652.436 246.078C652.293 246.477 652.15 246.877 652.005 247.277C652.191 247.152 652.379 247.027 652.561 246.903ZM652.018 248.562C652.16 248.13 652.301 247.697 652.443 247.265C652.255 247.392 652.064 247.52 651.872 247.648C651.722 248.066 651.57 248.484 651.419 248.902C651.619 248.789 651.821 248.675 652.018 248.562ZM651.472 250.209C651.617 249.769 651.764 249.33 651.908 248.89C651.706 249.006 651.501 249.122 651.296 249.238C651.143 249.661 650.988 250.084 650.834 250.507C651.048 250.407 651.262 250.307 651.472 250.209ZM650.928 251.849C651.077 251.402 651.224 250.955 651.373 250.508C651.158 250.609 650.94 250.71 650.724 250.812C650.567 251.242 650.409 251.672 650.252 252.102C650.478 252.017 650.705 251.933 650.928 251.849ZM650.378 253.487C650.531 253.033 650.685 252.579 650.837 252.124C650.61 252.209 650.378 252.296 650.148 252.381C649.988 252.818 649.826 253.253 649.665 253.689L650.378 253.487ZM430.006 304.411C428.821 302.922 427.63 301.408 426.434 299.875C424.647 300.11 422.856 300.342 421.06 300.571C422.288 302.057 423.509 303.524 424.723 304.96C426.488 304.782 428.249 304.599 430.006 304.411ZM433.76 309.084C432.573 307.625 431.378 306.134 430.179 304.627C428.426 304.816 426.668 304.999 424.906 305.177C426.144 306.639 427.372 308.064 428.597 309.48C430.323 309.355 432.044 309.224 433.76 309.084ZM437.541 313.674C436.347 312.241 435.148 310.785 433.941 309.304C432.228 309.444 430.509 309.575 428.786 309.7C430.028 311.133 431.261 312.532 432.49 313.917C434.18 313.846 435.862 313.763 437.541 313.674ZM441.321 318.151C440.128 316.752 438.931 315.344 437.725 313.898C436.051 313.988 434.373 314.071 432.689 314.141C433.927 315.535 435.158 316.9 436.384 318.246M445.155 322.582C443.949 321.204 442.737 319.809 441.517 318.382C439.88 318.42 438.246 318.466 436.599 318.482C437.834 319.836 439.062 321.166 440.284 322.471C441.911 322.515 443.541 322.566 445.155 322.582ZM448.964 326.873C447.77 325.546 446.571 324.198 445.364 322.821C443.757 322.807 442.135 322.761 440.516 322.718C441.769 324.055 443.016 325.369 444.255 326.655C445.837 326.757 447.395 326.802 448.964 326.873ZM452.845 331.126C451.634 329.819 450.417 328.486 449.194 327.128C447.632 327.059 446.081 327.014 444.507 326.915C445.737 328.189 446.962 329.444 448.178 330.669C449.737 330.831 451.299 330.999 452.845 331.126ZM456.694 335.224C455.499 333.972 454.297 332.692 453.089 331.389C451.554 331.265 450.003 331.102 448.454 330.943C449.703 332.198 450.946 333.432 452.181 334.635C453.694 334.857 455.194 335.041 456.694 335.224ZM460.564 339.219C459.372 338.008 458.171 336.768 456.965 335.506C455.475 335.326 453.983 335.139 452.479 334.922C453.708 336.117 454.932 337.293 456.147 338.437C457.627 338.72 459.098 338.976 460.564 339.219ZM464.455 343.104C463.264 341.935 462.064 340.735 460.858 339.514C459.407 339.277 457.952 339.029 456.488 338.752C457.719 339.908 458.945 341.045 460.161 342.149C461.601 342.492 463.03 342.804 464.455 343.104ZM468.335 346.844C467.16 345.733 465.976 344.588 464.787 343.425C463.38 343.132 461.968 342.827 460.547 342.492C461.758 343.586 462.963 344.661 464.16 345.705C465.56 346.107 466.951 346.486 468.335 346.844ZM472.243 350.472C471.071 349.405 469.889 348.305 468.703 347.187C467.341 346.839 465.973 346.473 464.597 346.081C465.813 347.136 467.022 348.168 468.224 349.173C469.571 349.631 470.909 350.059 472.243 350.472ZM476.128 353.937C474.986 352.94 473.834 351.908 472.677 350.86C471.367 350.459 470.048 350.031 468.724 349.586C469.913 350.574 471.096 351.54 472.271 352.479C473.564 352.99 474.849 353.472 476.128 353.937ZM479.958 357.211C478.858 356.291 477.749 355.337 476.636 354.371C475.392 353.925 474.141 353.451 472.884 352.962C474.027 353.868 475.165 354.757 476.296 355.617C477.524 356.172 478.743 356.7 479.958 357.211ZM483.755 360.309C482.71 359.476 481.657 358.61 480.601 357.735C479.466 357.265 478.328 356.786 477.181 356.276C478.231 357.067 479.28 357.85 480.319 358.6C481.47 359.19 482.616 359.762 483.755 360.309ZM487.347 363.105C486.425 362.402 485.495 361.675 484.563 360.941C483.587 360.48 482.606 360.008 481.621 359.515C482.549 360.172 483.477 360.832 484.397 361.458C485.386 362.027 486.368 362.57 487.347 363.105ZM490.222 365.237C489.69 364.848 489.156 364.454 488.621 364.057C488.041 363.748 487.454 363.419 486.87 363.098C487.993 363.83 489.112 364.547 490.222 365.237ZM71.7121 36.1071C72.5681 32.8575 73.4203 29.6077 74.2706 26.3646C75.0181 23.5126 75.7646 20.6662 76.5106 17.8296C74.3856 20.6766 72.3174 23.6802 70.2992 26.819C68.587 32.516 66.8864 38.2734 65.1844 44.0468C67.3077 41.2675 69.4815 38.6143 71.7121 36.1071ZM66.4234 55.8569C68.1713 49.4791 69.8843 43.0439 71.5811 36.6057C69.332 39.1531 67.1399 41.8487 65 44.6726L64.7748 45.4358C63.0502 51.2835 61.3231 57.1427 59.5772 62.9671C61.8059 60.4738 64.0866 58.0986 66.4234 55.8569ZM60.5604 76.4405C62.5288 69.8371 64.4361 63.0995 66.3036 56.2949C63.9529 58.5648 61.6594 60.971 59.4179 63.4955C57.4682 69.9916 55.4952 76.4422 53.4769 82.7823C55.786 80.5581 58.1464 78.4396 60.5604 76.4405ZM53.7322 97.8897C56.0608 91.0939 58.2874 84.0497 60.44 76.8436C58.0153 78.864 55.6456 81.0057 53.3271 83.2534C51.1188 90.1773 48.8556 96.9654 46.5118 103.536C46.9305 103.185 47.3504 102.835 47.7725 102.489C49.724 100.89 51.7123 99.3577 53.7322 97.8897ZM45.1737 120.391C48.1447 113.432 50.9392 106.018 53.6001 98.2772C51.6763 99.6817 49.7816 101.145 47.9205 102.67C47.3967 103.1 46.8754 103.534 46.3561 103.973C43.6787 111.456 40.8936 118.651 37.9617 125.433C40.3198 123.677 42.7234 121.992 45.1737 120.391ZM32.5642 144.997C37.062 137.865 41.1783 129.704 45.0032 120.787C42.5462 122.401 40.1375 124.098 37.7736 125.868C34.0241 134.5 30.0331 142.457 25.716 149.471C27.9601 147.929 30.2425 146.435 32.5642 144.997ZM8.38822 170.088C7.43647 170.608 6.47063 171.088 5.49138 171.531C4.5973 172.453 3.68912 173.332 2.77051 174.176C3.30081 173.847 3.82772 173.505 4.34956 173.149C5.72431 172.213 7.06988 171.191 8.38822 170.088ZM657.507 232.314L657.652 231.802L657.572 231.962L657.404 232.504L657.507 232.314ZM657.003 234.078L657.215 233.34L657.048 233.644L656.811 234.397L657.003 234.078ZM656.5 235.837L656.757 234.94L656.514 235.341L656.234 236.233L656.5 235.837ZM655.994 237.595C656.093 237.251 656.193 236.908 656.292 236.565L655.988 237.018C655.88 237.357 655.772 237.695 655.664 238.033L655.994 237.595ZM655.487 239.346L655.812 238.226L655.451 238.704L655.101 239.804L655.487 239.346ZM654.981 241.085L655.328 239.896L654.917 240.383C654.793 240.768 654.67 241.153 654.546 241.539C654.692 241.387 654.838 241.236 654.981 241.085ZM654.473 242.819L654.84 241.57C654.688 241.728 654.535 241.887 654.383 242.046L653.991 243.26C654.152 243.113 654.314 242.966 654.473 242.819ZM653.963 244.558C654.092 244.123 654.218 243.688 654.346 243.253C654.18 243.406 654.013 243.558 653.846 243.711C653.708 244.135 653.572 244.56 653.434 244.984C653.61 244.842 653.785 244.7 653.963 244.558ZM653.443 246.308C653.577 245.856 653.712 245.405 653.846 244.953C653.662 245.1 653.481 245.246 653.3 245.392C653.159 245.825 653.017 246.258 652.875 246.691C653.066 246.563 653.257 246.435 653.443 246.308ZM652.93 248.034C653.067 247.577 653.202 247.118 653.338 246.661C653.148 246.791 652.952 246.922 652.758 247.052C652.612 247.497 652.468 247.942 652.321 248.386C652.525 248.269 652.726 248.151 652.93 248.034ZM652.411 249.762C652.552 249.294 652.694 248.826 652.834 248.357C652.625 248.477 652.421 248.597 652.212 248.717C652.063 249.169 651.913 249.62 651.763 250.071C651.98 249.968 652.194 249.865 652.411 249.762ZM651.892 251.485C652.035 251.01 652.178 250.534 652.322 250.058C652.1 250.163 651.884 250.267 651.664 250.372C651.512 250.829 651.361 251.287 651.208 251.744C651.438 251.658 651.662 251.572 651.892 251.485ZM651.37 253.204C651.517 252.722 651.663 252.24 651.81 251.758L651.117 252.019C650.962 252.483 650.806 252.946 650.65 253.41L651.37 253.204ZM435.549 303.797C434.394 302.264 433.231 300.704 432.063 299.127C430.277 299.368 428.484 299.606 426.688 299.842C427.887 301.377 429.08 302.892 430.266 304.383C432.032 304.193 433.793 303.998 435.549 303.797ZM439.211 308.614C438.052 307.106 436.884 305.567 435.713 304.014C433.96 304.214 432.202 304.409 430.439 304.599C431.641 306.108 432.84 307.601 434.029 309.063C435.762 308.921 437.488 308.77 439.211 308.614ZM442.892 313.36C441.729 311.879 440.556 310.362 439.38 308.833C437.661 308.989 435.939 309.141 434.21 309.283C435.417 310.765 436.619 312.226 437.813 313.659C439.511 313.568 441.205 313.47 442.892 313.36ZM446.582 318.012C445.418 316.564 444.245 315.079 443.068 313.581C441.383 313.693 439.692 313.792 437.997 313.884C439.206 315.333 440.405 316.743 441.602 318.144C443.264 318.104 444.932 318.075 446.582 318.012ZM450.294 322.569C449.124 321.147 447.95 319.713 446.766 318.243C445.12 318.306 443.456 318.334 441.798 318.374C443.021 319.804 444.235 321.201 445.444 322.582C447.069 322.596 448.682 322.581 450.294 322.569ZM454.057 327.078C452.874 325.678 451.686 324.259 450.49 322.809C448.882 322.822 447.273 322.835 445.653 322.821C446.866 324.202 448.071 325.555 449.27 326.887C450.868 326.957 452.472 327.039 454.057 327.078ZM457.81 331.463C456.635 330.108 455.453 328.731 454.264 327.325C452.686 327.287 451.091 327.21 449.499 327.142C450.728 328.503 451.948 329.838 453.162 331.148C454.719 331.274 456.266 331.372 457.81 331.463ZM461.585 335.755C460.409 334.438 459.227 333.094 458.037 331.725C456.499 331.636 454.957 331.534 453.406 331.411C454.624 332.722 455.835 334.009 457.039 335.269C458.562 335.453 460.076 335.61 461.585 335.755ZM465.38 339.945C464.202 338.666 463.018 337.358 461.827 336.025C460.327 335.883 458.824 335.732 457.31 335.551C458.524 336.819 459.732 338.064 460.932 339.28C462.422 339.523 463.904 339.744 465.38 339.945ZM469.19 344.026C468.013 342.788 466.829 341.518 465.638 340.227C464.174 340.029 462.705 339.814 461.227 339.576C462.445 340.807 463.656 342.016 464.86 343.194C466.311 343.495 467.753 343.768 469.19 344.026ZM472.999 347.973C471.833 346.786 470.658 345.567 469.477 344.326C468.054 344.074 466.627 343.809 465.191 343.514C466.393 344.687 467.589 345.839 468.778 346.959C470.192 347.321 471.599 347.658 472.999 347.973ZM476.841 351.815C475.673 350.669 474.496 349.49 473.313 348.29C471.931 347.982 470.542 347.655 469.145 347.302C470.354 348.438 471.557 349.553 472.751 350.635C474.122 351.054 475.485 351.444 476.841 351.815ZM480.673 355.505C479.522 354.419 478.362 353.3 477.197 352.16C475.859 351.799 474.513 351.409 473.16 351C474.35 352.074 475.533 353.126 476.708 354.146C478.037 354.623 479.359 355.077 480.673 355.505ZM484.474 359.02C483.346 357.999 482.21 356.946 481.068 355.872C479.784 355.46 478.491 355.021 477.192 354.561C478.361 355.57 479.524 356.56 480.677 357.518C481.95 358.044 483.215 358.543 484.474 359.02ZM488.254 362.369C487.166 361.427 486.069 360.452 484.967 359.46C483.754 359.006 482.534 358.532 481.307 358.032C482.423 358.952 483.536 359.854 484.64 360.726C485.852 361.298 487.056 361.846 488.254 362.369ZM491.996 365.537C490.953 364.675 489.902 363.782 488.847 362.874C487.722 362.39 486.593 361.888 485.456 361.361C486.544 362.21 487.627 363.043 488.702 363.847C489.807 364.434 490.903 364.992 491.996 365.537ZM495.593 368.44C494.676 367.719 493.75 366.966 492.822 366.207C491.841 365.727 490.849 365.215 489.857 364.7C490.811 365.4 491.76 366.087 492.703 366.752C493.67 367.328 494.636 367.9 495.593 368.44ZM498.38 370.586C497.827 370.169 497.269 369.732 496.712 369.302C496.122 368.977 495.531 368.651 494.937 368.312C496.093 369.101 497.239 369.853 498.38 370.586ZM78.7233 28.9095C80.2602 22.4577 81.7708 15.9881 83.2696 9.54835C81.0821 11.9807 78.9546 14.5857 76.881 17.3383C76.0861 20.3568 75.2922 23.3868 74.4962 26.4232C73.6847 29.5187 72.8711 32.62 72.0547 35.722C74.2221 33.3068 76.4437 31.0308 78.7233 28.9095ZM73.6736 49.5022C75.3667 42.8346 77.0112 36.0882 78.6255 29.3205C76.3335 31.4683 74.1018 33.7748 71.9232 36.2205C70.2213 42.6815 68.503 49.141 66.7508 55.5438C69.0042 53.3987 71.3101 51.3798 73.6736 49.5022ZM67.9727 70.8234C69.9123 63.9775 71.7733 56.973 73.5782 49.878C71.2063 51.7749 68.8924 53.8147 66.6308 55.9813C64.7619 62.7999 62.8534 69.552 60.8839 76.1716C61.9773 75.2726 63.0822 74.3983 64.1989 73.5506C65.4416 72.6066 66.7007 71.6991 67.9727 70.8234ZM61.2123 92.8817C63.5458 85.8961 65.7561 78.6324 67.8724 71.1786C66.6826 72.0027 65.5035 72.8524 64.3395 73.736C63.1341 74.6515 61.9421 75.5995 60.7633 76.5749C58.612 83.7887 56.3873 90.8427 54.0598 97.6499C56.3966 95.9635 58.7788 94.3681 61.2123 92.8817ZM52.5529 115.917C55.5912 108.81 58.4239 101.203 61.0951 93.2321C58.6564 94.7307 56.2691 96.3383 53.9277 98.0363C51.2738 105.775 48.4882 113.195 45.5262 120.16C47.8253 118.668 50.1679 117.253 52.5529 115.917ZM39.4743 140.96C44.1898 133.757 48.4674 125.434 52.4012 116.275C50.0104 117.622 47.662 119.048 45.3575 120.551C41.5601 129.44 37.4749 137.588 33.0126 144.724C35.1332 143.42 37.286 142.162 39.4743 140.96ZM8.58619 167.771C7.38586 168.157 6.16607 168.492 4.92555 168.769C3.89738 170.15 2.85468 171.479 1.79563 172.753C3.004 172.338 4.19052 171.863 5.358 171.335C6.45244 170.204 7.52742 169.015 8.58619 167.771ZM12.5285 166.278C11.3752 166.78 10.202 167.23 9.01032 167.628C8.0009 168.825 6.97526 169.969 5.93356 171.064C7.0875 170.521 8.22255 169.926 9.33814 169.277C10.4202 168.331 11.4823 167.33 12.5285 166.278ZM16.0798 164.542C15.1026 165.075 14.1123 165.572 13.1064 166.027C12.2188 166.935 11.3171 167.803 10.4034 168.635C11.1933 168.148 11.9753 167.639 12.7454 167.099C13.8773 166.304 14.9874 165.447 16.0798 164.542ZM658.652 229.23L658.779 228.738L658.728 228.854L658.579 229.381L658.652 229.23ZM658.179 231.071L658.366 230.345L658.224 230.634L658.014 231.376L658.179 231.071ZM657.703 232.916C657.782 232.612 657.861 232.309 657.939 232.005L657.724 232.403L657.465 233.31L657.703 232.916ZM657.225 234.754L657.496 233.712L657.219 234.172L656.922 235.209C657.024 235.057 657.124 234.906 657.225 234.754ZM656.748 236.585C656.848 236.204 656.947 235.823 657.046 235.443C656.936 235.607 656.825 235.772 656.714 235.936C656.607 236.312 656.499 236.688 656.39 237.064L656.748 236.585ZM656.266 238.419L656.59 237.187L656.206 237.701L655.857 238.907L656.266 238.419ZM655.787 240.24C655.901 239.81 656.014 239.379 656.127 238.949C655.985 239.118 655.841 239.288 655.698 239.458C655.575 239.878 655.454 240.301 655.332 240.721C655.485 240.56 655.635 240.4 655.787 240.24ZM655.302 242.062C655.421 241.613 655.542 241.164 655.661 240.715C655.505 240.878 655.347 241.042 655.19 241.206C655.061 241.642 654.934 242.079 654.805 242.516C654.972 242.364 655.139 242.213 655.302 242.062ZM654.821 243.869C654.944 243.407 655.067 242.944 655.19 242.482C655.021 242.637 654.849 242.794 654.678 242.95C654.546 243.401 654.414 243.852 654.281 244.303L654.821 243.869ZM654.33 245.692C654.46 245.212 654.59 244.733 654.719 244.252C654.534 244.4 654.35 244.548 654.166 244.696C654.028 245.163 653.888 245.629 653.75 246.096C653.942 245.961 654.134 245.827 654.33 245.692ZM653.841 247.507C653.973 247.019 654.104 246.53 654.236 246.042C654.035 246.18 653.842 246.316 653.643 246.453C653.503 246.924 653.364 247.395 653.224 247.864L653.841 247.507ZM653.349 249.315C653.485 248.818 653.62 248.321 653.755 247.824L653.128 248.188C652.984 248.667 652.839 249.147 652.695 249.627L653.349 249.315ZM652.855 251.12C652.994 250.616 653.132 250.112 653.269 249.608L652.606 249.923C652.459 250.41 652.313 250.895 652.166 251.381L652.855 251.12ZM652.361 252.919C652.502 252.409 652.641 251.898 652.781 251.389L652.084 251.654C651.935 252.145 651.786 252.636 651.637 253.127L652.361 252.919ZM441.087 303.147C439.959 301.568 438.828 299.979 437.688 298.355C435.9 298.604 434.109 298.85 432.312 299.093C433.48 300.673 434.645 302.234 435.802 303.769C437.569 303.567 439.331 303.359 441.087 303.147ZM444.656 308.095C443.524 306.54 442.385 304.964 441.242 303.364C439.488 303.576 437.729 303.784 435.965 303.985C437.139 305.54 438.308 307.08 439.469 308.59C441.203 308.432 442.933 308.268 444.656 308.095ZM448.24 312.973C447.105 311.445 445.963 309.889 444.816 308.314C443.096 308.487 441.369 308.651 439.638 308.809C440.816 310.34 441.991 311.858 443.156 313.341C444.857 313.229 446.551 313.104 448.24 312.973ZM451.822 317.752C450.691 316.26 449.55 314.734 448.406 313.194C446.72 313.326 445.029 313.45 443.332 313.563C444.511 315.063 445.689 316.555 446.854 318.005C448.52 317.94 450.168 317.84 451.822 317.752ZM455.454 322.489C454.308 321.014 453.154 319.504 451.997 317.979C450.346 318.067 448.704 318.171 447.042 318.236C448.226 319.706 449.402 321.147 450.573 322.568C452.205 322.554 453.833 322.531 455.454 322.489ZM459.101 327.125C457.95 325.678 456.797 324.22 455.634 322.724C454.018 322.766 452.396 322.792 450.768 322.808C451.967 324.26 453.156 325.679 454.341 327.081C455.937 327.118 457.518 327.119 459.101 327.125ZM462.78 331.692C461.625 330.275 460.464 328.84 459.295 327.372C457.717 327.367 456.139 327.363 454.548 327.328C455.743 328.74 456.931 330.123 458.113 331.484C459.677 331.574 461.23 331.637 462.78 331.692ZM466.478 336.167C465.32 334.785 464.157 333.38 462.986 331.946C461.441 331.892 459.897 331.834 458.339 331.745C459.533 333.119 460.721 334.466 461.901 335.786C463.434 335.932 464.96 336.06 466.478 336.167ZM470.188 340.536C469.03 339.193 467.867 337.823 466.695 336.427C465.185 336.322 463.667 336.199 462.142 336.056C463.339 337.394 464.53 338.707 465.713 339.991C467.212 340.193 468.703 340.376 470.188 340.536ZM473.913 344.8C472.756 343.496 471.591 342.163 470.42 340.805C468.945 340.648 467.462 340.471 465.972 340.272C467.173 341.572 468.366 342.849 469.551 344.094C471.014 344.353 472.466 344.585 473.913 344.8ZM477.647 348.942C476.495 347.684 475.334 346.396 474.167 345.084C472.73 344.874 471.289 344.648 469.838 344.394C471.029 345.643 472.213 346.868 473.388 348.061C474.816 348.379 476.235 348.672 477.647 348.942ZM481.417 352.988C480.259 351.767 479.093 350.515 477.921 349.238C476.522 348.974 475.116 348.688 473.702 348.378C474.898 349.589 476.089 350.778 477.27 351.933C478.66 352.309 480.043 352.661 481.417 352.988ZM485.166 356.871C484.024 355.71 482.872 354.515 481.713 353.297C480.354 352.979 478.987 352.633 477.613 352.266C478.796 353.42 479.973 354.55 481.141 355.648C482.49 356.082 483.833 356.49 485.166 356.871ZM488.931 360.625C487.795 359.516 486.65 358.373 485.499 357.207C484.186 356.835 482.864 356.437 481.535 356.016C482.712 357.118 483.883 358.196 485.045 359.243C486.348 359.731 487.643 360.19 488.931 360.625ZM492.663 364.2C491.558 363.164 490.443 362.095 489.323 361.005C488.062 360.583 486.792 360.134 485.516 359.663C486.658 360.687 487.795 361.689 488.923 362.659C490.178 363.2 491.424 363.713 492.663 364.2ZM496.431 367.655C495.337 366.674 494.234 365.662 493.125 364.628C491.929 364.163 490.725 363.676 489.514 363.163C490.648 364.131 491.776 365.076 492.895 365.991C494.081 366.571 495.26 367.125 496.431 367.655ZM500.082 370.851C499.058 369.975 498.025 369.069 496.987 368.146C495.873 367.65 494.752 367.126 493.625 366.584C494.686 367.443 495.74 368.279 496.787 369.091C497.892 369.7 498.991 370.289 500.082 370.851ZM503.569 373.761C502.657 373.019 501.738 372.249 500.816 371.468C499.847 370.978 498.874 370.471 497.894 369.944C498.842 370.666 499.783 371.365 500.72 372.049C501.675 372.638 502.625 373.211 503.569 373.761ZM506.369 375.998C505.811 375.563 505.246 375.104 504.683 374.651C504.101 374.32 503.519 373.994 502.932 373.648C504.088 374.465 505.231 375.245 506.369 375.998ZM441.487 303.334C442.634 304.937 443.773 306.512 444.907 308.07C454.243 307.129 463.421 305.978 472.428 304.642C536.15 295.195 591.26 276.582 632.574 258.741C590.064 273.595 533.161 289.755 468.095 299.691C459.368 301.024 450.493 302.244 441.487 303.334ZM437.93 298.321C439.072 299.948 440.204 301.536 441.333 303.117C450.38 302.023 459.294 300.799 468.06 299.46C532.131 289.676 588.28 273.861 630.555 259.204C587.234 270.849 529.542 284.168 464.411 294.399C455.712 295.766 446.879 297.077 437.93 298.321ZM85.8228 22.9741C87.2992 16.2278 88.7352 9.44302 90.1471 2.66953C87.9009 4.67046 85.7185 6.8537 83.5916 9.19557C82.0882 15.6552 80.574 22.1463 79.0324 28.6201C81.2389 26.5855 83.502 24.6998 85.8228 22.9741ZM80.954 44.3069C82.6093 37.394 84.2002 30.3801 85.7467 23.3219C83.4171 25.0664 81.148 26.9741 78.9343 29.0307C77.3184 35.8139 75.672 42.5757 73.9763 49.2597C75.1505 48.3346 76.3392 47.4445 77.542 46.5917C78.6659 45.7956 79.8045 45.0376 80.954 44.3069ZM75.3533 66.2374C77.2822 59.1985 79.1155 51.9748 80.8757 44.6353C79.799 45.3245 78.7312 46.0349 77.6771 46.782C76.3951 47.6915 75.1302 48.644 73.8808 49.6353C72.076 56.7396 70.2151 63.7542 68.2754 70.6116C70.5844 69.0358 72.943 67.5753 75.3533 66.2374ZM68.5742 88.7942C70.9394 81.6593 73.1619 74.2171 75.2683 66.5502C72.8517 67.8996 70.4888 69.3764 68.1749 70.9665C66.0596 78.4286 63.8507 85.7012 61.5185 92.6971C63.8256 91.2991 66.176 89.9937 68.5742 88.7942ZM59.7105 112.229C62.8504 105.022 65.7556 97.272 68.4695 89.1108C66.0682 90.3183 63.7139 91.6299 61.405 93.0375C58.7404 101.008 55.9146 108.614 52.8847 115.728C55.1202 114.486 57.3958 113.319 59.7105 112.229ZM45.9331 137.618C50.9473 130.397 55.4578 121.944 59.5657 112.56C57.2479 113.657 54.9709 114.835 52.7328 116.087C48.8267 125.215 44.5805 133.521 39.9023 140.729C41.8847 139.648 43.892 138.605 45.9331 137.618ZM6.70215 164.256C5.89619 164.332 5.07952 164.379 4.25735 164.412C3.25696 166.023 2.24585 167.587 1.22303 169.105C3.02402 167.474 4.84856 165.855 6.70215 164.256ZM7.92969 164.117C7.65869 164.15 7.38825 164.183 7.11626 164.213C5.22729 165.839 3.36792 167.483 1.53323 169.142C2.63416 168.988 3.72127 168.797 4.79089 168.56C5.85248 167.133 6.89828 165.65 7.92969 164.117ZM12.0537 163.421C10.801 163.695 9.52821 163.915 8.23411 164.081C7.21807 165.597 6.18792 167.062 5.14255 168.475C6.40873 168.182 7.65319 167.831 8.87721 167.425C9.95332 166.147 11.0119 164.811 12.0537 163.421ZM16.1869 162.309C14.9447 162.713 13.6804 163.059 12.3943 163.351C11.3778 164.714 10.3449 166.026 9.29513 167.285C10.5426 166.857 11.7687 166.373 12.973 165.83C14.0639 164.713 15.1345 163.537 16.1869 162.309ZM20.2233 160.771C19.0432 161.286 17.8427 161.749 16.6223 162.16C15.6177 163.343 14.5962 164.477 13.5577 165.561C14.7394 165.006 15.9001 164.395 17.042 163.733C18.1209 162.798 19.1809 161.809 20.2233 160.771ZM23.8362 159.001C22.8473 159.539 21.8434 160.038 20.8248 160.501C19.9264 161.412 19.0136 162.284 18.0872 163.118C19.1316 162.479 20.158 161.792 21.1683 161.063C22.0714 160.411 22.9601 159.722 23.8362 159.001ZM25.9128 157.531C27.1703 156.759 28.4057 155.932 29.6143 155.039C35.4878 150.695 40.803 144.936 45.6486 138.028C43.6086 139.022 41.6022 140.072 39.6207 141.16C35.4206 147.567 30.8742 153.093 25.9128 157.531ZM21.2691 160.046C22.452 159.493 23.6132 158.886 24.7548 158.228C29.9996 153.744 34.7868 148.055 39.1932 141.391C36.9995 142.604 34.8426 143.873 32.7178 145.188C29.1553 150.829 25.354 155.828 21.2691 160.046ZM16.9248 161.806C18.2028 161.363 19.4591 160.863 20.6924 160.304C24.8258 156.109 28.6692 151.114 32.2697 145.462C29.941 146.913 27.6501 148.419 25.4003 149.976C22.7085 154.305 19.8903 158.271 16.9248 161.806ZM12.6079 163.062C13.925 162.754 15.2174 162.383 16.4887 161.958C19.4347 158.482 22.2351 154.581 24.9117 150.319C22.4428 152.039 20.0234 153.82 17.645 155.644C16.0094 158.254 14.3321 160.731 12.6079 163.062ZM8.40585 163.826C9.71306 163.653 10.9981 163.423 12.2623 163.139C13.9228 160.908 15.54 158.542 17.118 156.05C14.5164 158.058 11.9634 160.116 9.46278 162.217C9.1124 162.76 8.75948 163.295 8.40585 163.826ZM7.43803 163.939C7.65925 163.914 7.88062 163.889 8.10129 163.862C8.34748 163.494 8.59267 163.122 8.83703 162.749C8.36933 163.145 7.90234 163.541 7.43803 163.939ZM4.40554 164.175C5.28482 164.137 6.15563 164.077 7.01601 163.989C7.77093 163.34 8.52922 162.694 9.2926 162.052C13.5961 155.385 17.6491 147.827 21.5375 139.654C18.8879 142.162 16.2965 144.735 13.7572 147.353C10.7236 153.336 7.61836 158.984 4.40554 164.175ZM0.788189 164.201C1.91661 164.236 3.02699 164.225 4.12636 164.184C7.24316 159.158 10.2584 153.701 13.2055 147.924C10.4646 150.766 7.78446 153.658 5.15862 156.574C3.71295 159.189 2.25741 161.735 0.788189 164.201ZM325.219 308.94C324.28 309.063 323.343 309.189 322.403 309.312C324.23 309.216 326.055 309.115 327.878 309.012C326.993 308.99 326.106 308.965 325.219 308.94ZM330.971 308.18C329.544 308.37 328.115 308.558 326.686 308.746C328.057 308.782 329.427 308.815 330.795 308.843C332.182 308.761 333.568 308.676 334.953 308.589C333.627 308.458 332.3 308.322 330.971 308.18ZM336.708 307.414C335.126 307.627 333.546 307.839 331.962 308.05C333.446 308.205 334.928 308.353 336.408 308.496C337.958 308.398 339.507 308.296 341.054 308.191C339.608 307.94 338.159 307.682 336.708 307.414ZM342.455 306.637C340.79 306.863 339.124 307.089 337.457 307.313C338.988 307.592 340.517 307.863 342.043 308.125C343.704 308.011 345.364 307.894 347.022 307.774C345.501 307.399 343.984 307.037 342.455 306.637ZM348.254 305.85C346.521 306.088 344.783 306.322 343.047 306.557C344.634 306.97 346.205 307.331 347.785 307.718C349.438 307.597 351.09 307.474 352.74 307.347C351.249 306.864 349.751 306.357 348.254 305.85ZM353.97 305.06C352.241 305.299 350.515 305.539 348.782 305.777C350.305 306.29 351.831 306.813 353.347 307.3C355.038 307.17 356.727 307.035 358.414 306.898C356.94 306.313 355.451 305.675 353.97 305.06ZM359.629 304.278C357.9 304.519 356.162 304.756 354.43 304.996C355.943 305.622 357.458 306.259 358.962 306.853C360.69 306.712 362.417 306.568 364.14 306.42C362.638 305.712 361.141 305.021 359.629 304.278ZM365.362 303.471C363.591 303.72 361.827 303.971 360.052 304.219C361.581 304.968 363.095 305.668 364.612 306.379C366.344 306.23 368.073 306.078 369.799 305.922C368.324 305.118 366.849 304.314 365.362 303.471ZM371.119 302.658C369.33 302.912 367.535 303.164 365.741 303.417C367.243 304.266 368.734 305.076 370.223 305.884C371.965 305.727 373.705 305.566 375.442 305.402C374.006 304.505 372.564 303.587 371.119 302.658ZM376.838 301.841C375.052 302.097 373.267 302.352 371.477 302.607C372.935 303.542 374.388 304.462 375.836 305.365C377.597 305.198 379.355 305.029 381.111 304.856C379.691 303.869 378.268 302.868 376.838 301.841ZM382.565 301.016C380.77 301.275 378.973 301.534 377.172 301.793C378.612 302.825 380.044 303.829 381.473 304.82C383.238 304.645 385.002 304.468 386.762 304.286C385.368 303.215 383.971 302.13 382.565 301.016ZM388.305 300.185C386.501 300.447 384.69 300.708 382.881 300.97C384.294 302.089 385.698 303.178 387.099 304.252C388.872 304.07 390.643 303.884 392.409 303.695C391.047 302.545 389.679 301.377 388.305 300.185ZM394.036 299.343C392.227 299.609 390.421 299.875 388.606 300.14C389.987 301.337 391.361 302.507 392.73 303.66C394.506 303.47 396.279 303.276 398.049 303.08C396.716 301.854 395.378 300.607 394.036 299.343ZM399.758 298.503C397.955 298.77 396.137 299.034 394.328 299.3C395.676 300.568 397.018 301.818 398.355 303.046C400.138 302.848 401.918 302.647 403.693 302.442C402.387 301.151 401.076 299.842 399.758 298.503ZM405.501 297.644C403.68 297.916 401.868 298.19 400.04 298.461C401.361 299.801 402.674 301.116 403.983 302.408C405.773 302.202 407.559 301.993 409.342 301.781C408.067 300.423 406.787 299.044 405.501 297.644ZM411.223 296.788C409.412 297.061 407.589 297.331 405.772 297.603C407.061 299.007 408.345 300.387 409.622 301.747C411.412 301.534 413.199 301.317 414.982 301.097C413.734 299.683 412.483 298.253 411.223 296.788ZM416.967 295.918C415.141 296.195 413.319 296.473 411.486 296.749C412.748 298.215 414.002 299.648 415.251 301.064C417.044 300.843 418.834 300.619 420.619 300.392C419.408 298.923 418.189 297.427 416.967 295.918ZM422.7 295.045C420.879 295.324 419.052 295.601 417.224 295.879C418.448 297.391 419.668 298.886 420.883 300.358C422.682 300.129 424.476 299.897 426.267 299.662C425.084 298.145 423.896 296.607 422.7 295.045ZM428.426 294.167C426.604 294.447 424.78 294.728 422.95 295.007C424.147 296.572 425.337 298.109 426.523 299.629C428.321 299.393 430.116 299.154 431.906 298.912C430.752 297.352 429.593 295.778 428.426 294.167ZM434.164 293.279C432.336 293.562 430.507 293.846 428.67 294.129C429.839 295.742 430.998 297.317 432.154 298.88C433.954 298.636 435.748 298.389 437.539 298.141C436.421 296.546 435.294 294.919 434.164 293.279ZM628.622 259.49C578.638 269.153 510.242 281.47 434.405 293.242C435.535 294.881 436.663 296.512 437.781 298.107C446.768 296.857 455.639 295.541 464.376 294.169C528.58 284.084 585.534 271.005 628.622 259.49ZM633.906 258.464L633.686 258.508C592.239 276.494 536.729 295.345 472.462 304.873C463.495 306.202 454.359 307.35 445.066 308.288C446.216 309.866 447.359 311.422 448.497 312.952C458.194 312.193 467.707 311.126 477.015 309.788C539.958 300.743 593.679 279.435 633.906 258.464ZM635.049 258.242L634.699 258.31C594.377 279.408 540.378 300.918 477.047 310.019C467.782 311.351 458.314 312.415 448.661 313.175C449.808 314.717 450.951 316.244 452.084 317.738C527.169 313.7 589.879 286.059 635.049 258.242ZM636.174 258.022L635.706 258.114C590.503 286.04 527.613 313.881 452.258 317.965C453.416 319.49 454.572 321.006 455.717 322.48C530.628 320.486 592.029 289.631 636.174 258.022ZM637.269 257.809L636.735 257.913C592.568 289.634 531.028 320.671 455.901 322.714C457.066 324.213 458.223 325.679 459.375 327.128C534.113 327.334 594.172 293.266 637.269 257.809ZM638.337 257.601L637.751 257.715C594.638 293.282 534.477 327.529 459.569 327.375C460.742 328.846 461.904 330.282 463.063 331.702C537.636 334.277 596.312 296.969 638.337 257.601ZM639.411 257.391L638.769 257.516C596.725 296.981 537.973 334.462 463.268 331.956C464.444 333.394 465.61 334.8 466.771 336.186C535.624 340.938 589.784 306.557 629.92 267.08C633.176 263.877 636.339 260.642 639.411 257.391ZM640.462 257.184L639.804 257.314C636.66 260.646 633.421 263.964 630.084 267.246C589.947 306.723 535.805 341.112 466.988 336.447C468.165 337.848 469.334 339.22 470.496 340.568C526.504 346.523 571.998 323.039 608.063 290.841C619.857 280.311 630.643 268.85 640.462 257.184ZM641.504 256.978L640.827 257.112C630.953 268.862 620.096 280.41 608.218 291.014C572.159 323.207 526.689 346.701 470.727 340.837C471.907 342.203 473.078 343.54 474.243 344.85C521.69 351.783 561.003 334.959 593.302 308.485C611.534 293.542 627.533 275.526 641.504 256.978ZM642.545 256.773L641.847 256.911C627.83 275.545 611.767 293.653 593.45 308.666C561.164 335.128 521.885 351.971 474.497 345.135C475.67 346.454 476.838 347.746 477.997 349.009C519.458 356.836 554.243 344.452 583.419 322.295C606.437 304.816 625.97 281.263 642.545 256.773ZM643.581 256.569L642.871 256.709C626.256 281.285 606.663 304.936 583.56 322.481C554.404 344.622 519.661 357.026 478.27 349.306C479.451 350.589 480.623 351.844 481.788 353.07C518.918 361.769 550.304 352.522 576.961 333.622C603.524 314.789 625.398 286.372 643.581 256.569ZM644.611 256.366L643.891 256.508C625.672 286.399 603.745 314.918 577.096 333.812C550.468 352.692 519.131 361.957 482.083 353.378C483.254 354.607 484.418 355.81 485.574 356.983C519.513 366.579 548.322 359.705 572.964 343.29C602.146 323.85 625.494 291.038 644.611 256.366ZM645.642 256.163L644.91 256.307C625.761 291.068 602.362 323.987 573.093 343.484C548.49 359.873 519.745 366.772 485.906 357.317C487.078 358.501 488.242 359.658 489.398 360.784C520.939 371.314 547.754 366.304 570.775 351.817C601.876 332.245 626.066 295.378 645.642 256.163ZM646.673 255.96L645.931 256.106C626.325 295.412 602.088 332.387 570.899 352.015C547.929 366.47 521.192 371.507 489.773 361.147C490.924 362.264 492.068 363.354 493.203 364.414C522.948 375.967 548.222 372.512 569.941 359.54C602.426 340.138 626.98 299.472 646.673 255.96ZM647.698 255.756L646.953 255.904C627.232 299.508 602.634 340.285 570.06 359.74C548.413 372.669 523.249 376.176 493.664 364.84C494.804 365.899 495.937 366.93 497.061 367.931C525.432 380.564 549.487 378.437 570.14 366.682C603.592 347.643 628.143 303.372 647.698 255.756ZM648.727 255.551L647.973 255.701C628.392 303.41 603.798 347.794 570.255 366.885C549.695 378.587 525.775 380.77 497.603 368.411C498.708 369.387 499.804 370.337 500.893 371.259C528.248 385.097 551.353 384.167 571.14 373.397C605.232 354.841 629.502 307.12 648.727 255.551ZM649.752 255.347L648.996 255.498C629.747 307.159 605.436 354.996 571.251 373.602C551.602 384.296 528.694 385.321 501.622 371.873C502.675 372.756 503.722 373.613 504.762 374.446C531.355 389.576 553.704 389.747 572.768 379.792C607.238 361.793 631.005 310.743 649.752 255.347ZM650.776 255.143L650.015 255.294C631.246 310.785 607.441 361.95 572.876 379.998C554.037 389.835 532.009 389.835 505.866 375.329C506.802 376.067 507.73 376.774 508.655 377.471C534.69 393.995 556.44 395.215 574.897 385.943C609.535 368.545 632.623 314.265 650.776 255.143ZM651.8 254.939L651.035 255.091C632.861 314.308 609.736 368.704 575.002 386.151C556.997 395.195 535.874 394.293 510.72 379.006C537.197 398.259 559.057 400.806 577.429 391.906C612.062 375.13 634.332 317.703 651.8 254.939ZM651.103 254.87L651.861 254.719C652.005 254.202 652.148 253.686 652.292 253.168L651.56 253.379C651.408 253.876 651.255 254.373 651.103 254.87ZM650.091 255.072L650.844 254.922L651.292 253.456L650.565 253.663C650.407 254.133 650.249 254.603 650.091 255.072ZM649.081 255.273L649.827 255.124C649.983 254.664 650.137 254.202 650.293 253.741L649.571 253.946C649.408 254.388 649.245 254.831 649.081 255.273ZM648.066 255.475L648.811 255.326C648.973 254.893 649.133 254.459 649.293 254.025L648.578 254.228C648.408 254.644 648.237 255.059 648.066 255.475ZM647.055 255.676L647.791 255.53C647.958 255.122 648.126 254.716 648.293 254.308L647.579 254.511C647.404 254.899 647.231 255.288 647.055 255.676ZM646.046 255.876L646.775 255.732C646.946 255.353 647.116 254.973 647.286 254.595L646.586 254.792C646.406 255.153 646.226 255.514 646.046 255.876ZM645.038 256.074L645.756 255.932L646.283 254.877L645.591 255.071L645.038 256.074ZM644.034 256.272L644.74 256.132L645.275 255.159L644.592 255.351C644.406 255.658 644.221 255.965 644.034 256.272ZM643.032 256.469L643.724 256.332C643.904 256.036 644.084 255.74 644.263 255.443L643.595 255.631C643.407 255.911 643.22 256.19 643.032 256.469ZM642.032 256.666L642.708 256.533C642.889 256.265 643.069 255.997 643.249 255.728L642.599 255.909C642.41 256.161 642.222 256.414 642.032 256.666ZM641.036 256.862L641.688 256.734C641.87 256.492 642.052 256.252 642.232 256.01L641.602 256.185C641.413 256.411 641.225 256.637 641.036 256.862ZM640.046 257.057L640.672 256.934C640.851 256.721 641.028 256.508 641.206 256.295L640.607 256.461C640.42 256.66 640.232 256.858 640.046 257.057ZM639.048 257.253L639.652 257.135L640.174 256.581L639.592 256.742L639.048 257.253ZM638.078 257.443L638.617 257.337L639.108 256.877L638.585 257.02C638.416 257.161 638.248 257.302 638.078 257.443ZM637.141 257.625L637.596 257.536C637.744 257.415 637.89 257.292 638.036 257.17L637.616 257.285C637.46 257.398 637.298 257.512 637.141 257.625ZM636.206 257.807L636.58 257.734C636.705 257.645 636.833 257.555 636.96 257.465L636.607 257.561C636.474 257.643 636.338 257.726 636.206 257.807ZM635.333 257.977L635.549 257.936L635.798 257.783L635.6 257.838L635.333 257.977ZM388.388 299.949C390.207 299.684 392.017 299.416 393.83 299.15C360.389 267.616 323.351 222.654 282.241 160.9C185.594 15.7164 128.643 -5.39228 89.0032 21.0138C88.0018 21.6811 87.0122 22.3822 86.0322 23.109C84.485 30.1768 82.8926 37.2007 81.2367 44.1246C122.648 18.0592 181.145 35.9618 277.707 172.25C318.238 229.457 355.001 270.971 388.388 299.949ZM382.645 300.78C384.459 300.518 386.276 300.257 388.085 299.993C354.721 271.006 317.995 229.518 277.517 172.385C180.899 36.0178 122.478 18.27 81.1587 44.453C79.3983 51.8012 77.565 59.0338 75.636 66.083C118.611 42.4408 178.234 58.887 272.977 183.73C312.878 236.307 349.332 274.35 382.645 300.78ZM376.915 301.606C378.723 301.346 380.527 301.086 382.329 300.826C349.046 274.386 312.635 236.371 272.792 183.87C178.006 58.9699 118.445 42.655 75.5507 66.396C73.4473 74.0657 71.2275 81.5127 68.8653 88.6539C113.496 66.5346 174.479 80.7268 268.248 195.208C307.524 243.161 343.672 277.723 376.915 301.606ZM371.191 302.423C372.991 302.167 374.786 301.911 376.58 301.654C343.374 277.761 307.278 243.229 268.067 195.356C174.257 80.8231 113.324 66.7547 68.762 88.9665C66.0551 97.1224 63.1585 104.871 60.0279 112.081C106.544 90.3531 169.388 101.182 263.518 206.687C302.172 250.014 338.015 281.088 371.191 302.423ZM365.431 303.236C367.233 302.982 369.035 302.729 370.833 302.474C337.704 281.129 301.923 250.084 263.344 206.842C169.156 101.271 106.346 90.5801 59.8832 112.411C55.8024 121.766 51.3217 130.199 46.3454 137.425C95.3158 113.953 161.283 118.964 258.787 218.165C296.802 256.842 332.333 284.45 365.431 303.236ZM0 156.962C1.6779 154.272 3.36609 151.547 5.06782 148.798C8.26936 143.627 11.52 138.377 14.8463 133.139L14.9683 132.914C19.9458 123.715 25.021 114.335 30.3137 105.195C34.8401 95.7805 39.469 86.385 44.3075 77.3734C48.4586 67.838 52.7187 58.4747 57.1867 49.6099C61.0314 39.9771 64.9938 30.6415 69.1678 21.9067C71.8747 14.5739 74.6538 7.47382 77.5457 0.731342H77.7975C75.1988 6.7863 72.6907 13.132 70.245 19.6761C71.8782 16.3278 73.5445 13.0726 75.2499 9.93187C76.2329 6.82916 77.2234 3.75946 78.2253 0.731342H78.4704C77.5821 3.41542 76.7027 6.1322 75.8297 8.87578C77.3776 6.06382 78.9571 3.34421 80.5727 0.731342H80.8447C79.0072 3.69643 77.2162 6.79955 75.4657 10.0218C73.8034 15.2736 72.1644 20.6213 70.5377 26.025C72.5298 22.9574 74.5709 20.0194 76.6673 17.235C78.129 11.682 79.5922 6.16844 81.0684 0.731342H81.3098C79.8767 6.00897 78.4559 11.3593 77.0363 16.7484C79.095 14.0399 81.2066 11.4785 83.3773 9.08446L83.8868 6.89769C84.3662 4.83796 84.8446 2.78176 85.3227 0.731342H85.5624C85.08 2.79925 84.5975 4.87293 84.114 6.95099L83.6995 8.7321C85.8173 6.41956 87.9906 4.26466 90.2264 2.28897L90.5507 0.731342H90.7887L90.5174 2.03601C91.025 1.59201 91.5356 1.15702 92.0501 0.731342H92.4143C91.7505 1.27659 91.0918 1.8372 90.4387 2.41333C89.0246 9.2005 87.5872 15.9998 86.1086 22.7612C87.0219 22.0885 87.943 21.4397 88.8749 20.8189C128.625 -5.66061 185.688 15.4355 282.436 160.771C323.593 222.597 360.663 267.583 394.122 299.107C395.936 298.841 397.757 298.575 399.565 298.308C366.05 264.229 328.698 215.776 286.967 149.415C234.476 65.9456 194.104 20.5651 162.073 0.731342H162.499C194.526 20.6975 234.839 66.0848 287.164 149.291C328.94 215.722 366.319 264.197 399.846 298.267C401.679 297.995 403.496 297.72 405.322 297.448C371.724 260.823 334.061 208.918 291.693 137.931C252.071 71.5449 219.566 27.6405 192.486 0.731342H192.802C219.878 27.6766 252.35 71.559 291.893 137.811C334.302 208.866 371.987 260.792 405.592 297.408C407.414 297.136 409.24 296.864 411.055 296.591C377.384 257.422 339.408 202.032 296.418 126.446C264.638 70.5699 237.564 29.6215 214.29 0.731483H214.573C237.842 29.6294 264.891 70.5434 296.621 126.331C339.647 201.981 377.641 257.393 411.317 296.552C413.153 296.275 414.978 295.998 416.806 295.72C383.054 254.006 344.767 195.164 301.144 114.962C275.12 67.1159 252.33 29.5715 232.262 0.731483H232.536C252.596 29.565 275.364 67.0777 301.349 114.851C345.007 195.116 383.309 253.977 417.063 295.681C418.895 295.403 420.725 295.125 422.549 294.847C388.719 250.589 350.121 188.283 305.871 103.478C284.404 62.3379 265.189 28.3923 247.928 0.731342H248.193C265.445 28.3783 284.641 62.2885 306.077 103.37C350.359 188.236 388.97 250.561 422.799 294.809C424.632 294.529 426.459 294.248 428.283 293.968C394.377 247.168 355.468 181.387 310.597 91.9937C292.897 56.7328 276.765 26.4939 262.018 0.731201H262.281C277.016 26.4745 293.132 56.6809 310.805 91.8896C355.705 181.34 394.626 247.14 428.527 293.93C430.365 293.647 432.196 293.363 434.026 293.079C400.041 243.736 360.821 174.5 315.323 80.5099C300.837 50.5862 287.418 24.0901 274.968 0.731342H275.229C287.667 24.067 301.07 50.5315 315.533 80.4087C361.06 174.457 400.288 243.71 434.268 293.042C511.577 281.049 581.19 268.483 631.408 258.743C632.106 258.554 632.795 258.368 633.487 258.18C634.133 257.954 634.782 257.728 635.42 257.503C636.073 257.217 636.72 256.932 637.365 256.647C637.948 256.337 638.52 256.029 639.097 255.72C639.722 255.325 640.347 254.93 640.966 254.536C641.517 254.131 642.081 253.725 642.625 253.32C643.276 252.763 643.919 252.207 644.563 251.651C645.096 251.13 645.615 250.608 646.143 250.086C646.644 249.53 647.142 248.973 647.637 248.417C648.144 247.78 648.649 247.143 649.151 246.506C649.654 245.795 650.155 245.084 650.653 244.373C651.121 243.633 651.587 242.894 652.049 242.153C652.516 241.331 652.979 240.508 653.441 239.685C653.874 238.834 654.306 237.982 654.735 237.131C655.163 236.197 655.589 235.264 656.012 234.331C656.414 233.36 656.813 232.39 657.21 231.42C657.594 230.39 657.977 229.362 658.357 228.333C658.725 227.245 659.09 226.158 659.454 225.072C659.797 223.949 660.139 222.826 660.479 221.704C660.811 220.503 661.141 219.302 661.471 218.103C664.411 206.355 667.236 194.657 669.995 183.236C681.642 135.016 692.106 91.6988 705 70.062V70.5112C692.22 92.2122 681.806 135.326 670.222 183.29C668.261 191.408 666.267 199.665 664.222 207.98C666.609 199.116 668.926 190.33 671.193 181.732C682.764 137.847 693.058 98.8141 705 78.7143V79.168C693.165 99.3227 682.924 138.157 671.419 181.791C668.784 191.781 666.084 202.023 663.282 212.349C666.484 201.565 669.554 190.891 672.529 180.54C683.93 140.881 693.979 105.933 705 87.3576V87.8144C694.078 106.435 684.084 141.191 672.754 180.604C669.397 192.281 665.922 204.367 662.27 216.563C666.385 203.998 670.277 191.578 674.008 179.663C685.141 144.114 694.869 113.055 705 95.9928V96.4508C694.96 113.547 685.289 144.423 674.231 179.732C670.109 192.892 665.794 206.666 661.196 220.573C666.329 206.386 671.108 192.374 675.633 179.105C686.397 147.543 695.729 120.178 705 104.619V105.074C695.813 120.659 686.539 147.849 675.854 179.18C671 193.414 665.854 208.502 660.292 223.744L660.255 223.89C666.443 208.407 672.117 193.129 677.412 178.869C687.701 151.16 696.563 127.298 705 113.231V113.683C696.639 127.764 687.837 151.463 677.63 178.951C672.149 193.711 666.262 209.562 659.819 225.603L659.694 226.095C666.881 209.786 673.379 193.723 679.349 178.964C689.057 154.963 697.373 134.407 705 121.823V122.271C697.442 134.859 689.188 155.262 679.566 179.051C673.44 194.195 666.759 210.711 659.348 227.457L659.162 228.184C667.438 211.18 674.806 194.469 681.455 179.394C690.471 158.946 698.163 141.503 705 130.393V130.837C698.225 141.942 690.597 159.24 681.668 179.488C674.885 194.87 667.352 211.952 658.872 229.314L658.638 230.225C668.112 212.631 676.411 195.388 683.737 180.166C691.948 163.104 698.939 148.579 705 138.932V139.372C698.995 149.002 692.068 163.392 683.947 180.267C676.505 195.729 668.059 213.275 658.398 231.158C658.308 231.506 658.219 231.854 658.13 232.202C668.928 214.129 678.219 196.473 686.209 181.288C693.499 167.432 699.709 155.632 705 147.438V147.868C699.76 156.036 693.616 167.713 686.415 181.397C678.322 196.778 668.897 214.691 657.92 233.008L657.62 234.159C669.903 215.698 680.259 197.735 688.885 182.771C695.138 171.924 700.483 162.651 705 155.9V156.32C700.531 163.036 695.25 172.196 689.087 182.887C680.371 198.007 669.891 216.186 657.441 234.85C657.334 235.262 657.227 235.675 657.12 236.087C671.075 217.327 682.578 199.163 691.786 184.622C696.884 176.571 701.279 169.63 705 164.31V164.717C701.324 169.994 696.993 176.833 691.983 184.746C682.697 199.41 671.078 217.758 656.962 236.688C656.848 237.125 656.732 237.562 656.617 237.999C672.496 219.011 685.245 200.74 694.937 186.85C698.766 181.362 702.119 176.557 705 172.66V173.052C702.163 176.9 698.874 181.614 695.128 186.983C685.368 200.971 672.509 219.398 656.478 238.528C656.359 238.98 656.241 239.432 656.122 239.883C658.229 237.658 660.287 235.442 662.283 233.247C677.482 216.54 689.532 200.922 698.374 189.462C700.831 186.278 703.04 183.415 705 180.938V181.314C703.086 183.736 700.939 186.519 698.559 189.604C689.713 201.069 677.659 216.694 662.456 233.404C660.364 235.703 658.209 238.025 655.997 240.357C655.872 240.828 655.746 241.299 655.621 241.77C676.514 222.417 692.149 204.145 702.152 192.457C703.159 191.281 704.108 190.172 705 189.135V189.493C704.16 190.47 703.269 191.51 702.33 192.608C692.279 204.352 676.544 222.735 655.509 242.191C655.382 242.668 655.255 243.146 655.128 243.623C678.483 224.846 695.39 207.338 705 197.239V197.578C695.322 207.744 678.382 225.251 655.026 244.005C654.894 244.499 654.761 244.993 654.628 245.486C678.333 229.163 695.494 214.075 705 205.241V205.559C695.428 214.445 678.239 229.532 654.534 245.836C654.398 246.338 654.263 246.84 654.127 247.342C678.158 233.41 695.568 220.679 705 213.132V213.431C695.498 221.02 678.062 233.748 654.041 247.659C653.904 248.167 653.766 248.675 653.627 249.183C677.955 237.583 695.607 227.147 705 220.905V221.182C695.536 227.458 677.861 237.89 653.548 249.475C653.407 249.989 653.266 250.503 653.125 251.017C677.727 241.683 695.615 233.477 705 228.554V228.808C695.542 233.758 677.635 241.963 653.051 251.287C652.909 251.805 652.767 252.325 652.624 252.843C677.481 245.706 695.595 239.666 705 236.071V236.304C695.52 239.92 677.387 245.963 652.555 253.093C652.409 253.618 652.263 254.143 652.117 254.668C677.207 249.661 695.546 245.717 705 243.455V243.664C695.472 245.939 677.117 249.886 652.056 254.888C634.568 317.748 612.263 375.292 577.531 392.116C558.628 401.273 536.047 398.35 508.575 377.673C505.974 376.023 503.329 374.215 500.643 372.257C498.013 370.637 495.342 368.876 492.63 366.966C489.896 365.338 487.125 363.584 484.308 361.664C481.597 360.106 478.847 358.411 476.062 356.593C473.269 355.055 470.442 353.394 467.576 351.599C464.784 350.13 461.957 348.541 459.097 346.84C456.145 345.366 453.161 343.782 450.138 342.063C447.2 340.673 444.23 339.177 441.228 337.565C438.147 336.202 435.037 334.738 431.89 333.153C428.896 331.917 425.877 330.6 422.827 329.18C419.744 328.015 416.631 326.752 413.493 325.408C410.226 324.294 406.923 323.065 403.6 321.773C400.27 320.762 396.916 319.677 393.535 318.505C390.391 317.673 387.228 316.781 384.045 315.827C380.586 315.07 377.108 314.256 373.606 313.364C370.233 312.787 366.844 312.164 363.433 311.476C359.854 311.046 356.258 310.568 352.646 310.042C349.036 309.806 345.412 309.534 341.774 309.221C338.126 309.2 334.467 309.152 330.798 309.077C327.033 309.3 323.26 309.505 319.479 309.695C234.767 320.722 147.784 329.402 71.3953 331.991C46.3021 332.841 22.3527 333.034 0.000704999 332.438V332.204C22.3496 332.801 46.2967 332.608 71.388 331.758C146.932 329.198 232.834 320.68 316.652 309.831C285.017 311.336 252.9 311.6 220.883 310.221C160.922 307.638 104.007 308.697 53.4119 309.638C34.6874 309.987 16.8292 310.318 0.000704999 310.444V310.21C16.8273 310.085 34.684 309.753 53.4082 309.405C104.007 308.464 160.928 307.405 220.893 309.988C253.89 311.41 286.992 311.086 319.563 309.457C320.981 309.272 322.395 309.085 323.812 308.899C291.637 307.919 258.723 304.745 225.594 298.737C138.93 283.021 61.6346 285.703 0 288.965V288.731C61.6435 285.469 138.95 282.788 225.635 298.508C259.247 304.603 292.639 307.781 325.262 308.708C326.847 308.499 328.432 308.29 330.016 308.081C297.615 304.57 264.228 297.915 230.307 287.251C138.782 258.48 60.8052 261.352 0 268.143V267.908C60.8231 261.117 138.821 258.247 230.376 287.029C264.62 297.794 298.318 304.469 331.007 307.95C332.671 307.728 334.334 307.507 335.995 307.284C303.442 301.232 269.661 291.09 235.022 275.765C138.233 232.942 59.8036 237.021 0 248.158V247.92C59.8296 236.782 138.289 232.711 235.115 275.551C269.988 290.98 303.99 301.15 336.744 307.183C338.466 306.952 340.185 306.719 341.905 306.486C309.222 297.887 275.073 284.271 239.738 264.277C137.225 206.272 58.6228 212.831 0 229.22V228.977C58.6561 212.588 137.296 206.044 239.853 264.074C275.36 284.165 309.67 297.821 342.497 306.406C344.257 306.167 346.02 305.931 347.776 305.69C314.976 294.544 280.475 277.455 244.456 252.79C135.662 178.287 57.2667 188.975 0 211.616V211.364C57.3081 188.722 135.749 178.063 244.588 252.597C280.754 277.363 315.386 294.482 348.305 305.618C350.062 305.377 351.812 305.133 353.567 304.89C320.676 291.194 285.848 270.623 249.177 241.302C133.455 148.774 55.7477 165.697 0 195.67V195.403C55.7963 165.431 133.557 148.557 249.322 241.12C286.111 270.536 321.045 291.141 354.027 304.827C355.778 304.585 357.534 304.345 359.281 304.101C326.326 287.855 291.186 263.762 253.898 229.816C130.47 117.449 54.1048 143.381 0 181.81V181.523C54.16 143.092 130.589 117.242 254.055 229.643C291.441 263.678 326.667 287.808 359.694 304.044C361.484 303.794 363.265 303.541 365.051 303.289C332.011 284.495 296.551 256.92 258.62 218.329C160.99 118.999 95.0159 114.195 46.0709 137.827C41.1486 144.903 35.7414 150.798 29.7532 155.226C28.1723 156.395 26.5511 157.464 24.887 158.422C23.7152 159.424 22.523 160.373 21.3048 161.252C19.9591 162.223 18.5821 163.111 17.1775 163.924C15.7776 165.137 14.3456 166.26 12.8796 167.29C11.7645 168.073 10.6279 168.795 9.47251 169.468C7.85158 170.885 6.18919 172.179 4.48182 173.342C3.61749 173.931 2.7416 174.483 1.85401 175.002C1.24207 175.542 0.624066 176.064 0.000141 176.568V176.271C0.278475 176.045 0.555963 175.814 0.83204 175.581C0.555963 175.733 0.278616 175.882 0.000141 176.028V175.771C0.578523 175.465 1.15197 175.144 1.72062 174.811C2.80026 173.857 3.86255 172.85 4.90849 171.789C3.79431 172.274 2.66151 172.708 1.51095 173.091C1.01097 173.686 0.507459 174.269 0.000141 174.84V174.488C0.365613 174.074 0.728828 173.654 1.09078 173.227C0.728828 173.343 0.365613 173.454 0.000141 173.56V173.317C0.462198 173.182 0.921716 173.039 1.37799 172.888C2.46158 171.596 3.52937 170.249 4.58109 168.845C3.47565 169.082 2.3547 169.278 1.21584 169.427C1.03226 169.593 0.848678 169.76 0.665801 169.927C0.444714 170.25 0.222357 170.572 0.000141 170.89V170.218L0.494769 169.767C0.558642 169.673 0.622796 169.582 0.686669 169.488C0.45825 169.514 0.229689 169.54 0.000141 169.564V169.332C0.286512 169.303 0.572178 169.271 0.856574 169.236C1.90914 167.681 2.94901 166.075 3.97789 164.421C2.88387 164.459 1.77759 164.466 0.654098 164.427C0.436254 164.791 0.21855 165.154 0.000141 165.514V165.065C0.130848 164.848 0.261132 164.631 0.391275 164.413L0 164.396V164.166C0.175122 164.174 0.349962 164.181 0.524661 164.188C1.84724 161.971 3.1591 159.689 4.46236 157.349C2.95775 159.029 1.47049 160.716 0 162.405V162.05C1.63447 160.174 3.28981 158.301 4.96743 156.438C8.05011 150.86 11.087 144.969 14.1116 138.881C11.4716 142.296 8.88722 145.745 6.34908 149.198C4.23084 153.014 2.11782 156.749 0.000141 160.369V159.907C1.74783 156.913 3.49257 153.84 5.2404 150.71C3.47226 153.127 1.72668 155.543 0.000141 157.946V157.546C2.02236 154.733 4.07123 151.902 6.15182 149.072C8.49256 144.854 10.8404 140.538 13.2069 136.169C10.5176 140.438 7.87541 144.706 5.26635 148.92C3.4968 151.778 1.74318 154.61 0.000141 157.402V156.962H0Z" fill="white"/>
</mask>
<g mask="url(#mask0_0_557)">
<path d="M704.999 -5.66089H0V401.273H704.999V-5.66089Z" fill="white"/>
</g>
</g>
</svg>
